  0
SECTION
  2
HEADER
  9
$ACADVER
  1
AC1024
  9
$ACADMAINTVER
 70
     6
  9
$DWGCODEPAGE
  3
UNDEFINED
  9
$INSBASE
 10
0.0
 20
0.0
 30
0.0
  9
$EXTMIN
 10
1.000000000000000E+20
 20
1.000000000000000E+20
 30
1.000000000000000E+20
  9
$EXTMAX
 10
-1.000000000000000E+20
 20
-1.000000000000000E+20
 30
-1.000000000000000E+20
  9
$LIMMIN
 10
0.0
 20
0.0
  9
$LIMMAX
 10
12.0
 20
9.0
  9
$ORTHOMODE
 70
     0
  9
$REGENMODE
 70
     1
  9
$FILLMODE
 70
     1
  9
$QTEXTMODE
 70
     0
  9
$MIRRTEXT
 70
     1
  9
$LTSCALE
 40
1.0
  9
$ATTMODE
 70
     1
  9
$TEXTSIZE
 40
0.2
  9
$TRACEWID
 40
0.05
  9
$TEXTSTYLE
  7
Standard
  9
$CLAYER
  8
0
  9
$CELTYPE
  6
ByLayer
  9
$CECOLOR
 62
   256
  9
$CELTSCALE
 40
1.0
  9
$DISPSILH
 70
     0
  9
$DIMSCALE
 40
1.0
  9
$DIMASZ
 40
0.18
  9
$DIMEXO
 40
0.0625
  9
$DIMDLI
 40
0.38
  9
$DIMRND
 40
0.0
  9
$DIMDLE
 40
0.0
  9
$DIMEXE
 40
0.18
  9
$DIMTP
 40
0.0
  9
$DIMTM
 40
0.0
  9
$DIMTXT
 40
0.18
  9
$DIMCEN
 40
0.09
  9
$DIMTSZ
 40
0.0
  9
$DIMTOL
 70
     0
  9
$DIMLIM
 70
     0
  9
$DIMTIH
 70
     1
  9
$DIMTOH
 70
     1
  9
$DIMSE1
 70
     0
  9
$DIMSE2
 70
     0
  9
$DIMTAD
 70
     0
  9
$DIMZIN
 70
     0
  9
$DIMBLK
  1

  9
$DIMASO
 70
     1
  9
$DIMSHO
 70
     1
  9
$DIMPOST
  1

  9
$DIMAPOST
  1

  9
$DIMALT
 70
     0
  9
$DIMALTD
 70
     2
  9
$DIMALTF
 40
25.4
  9
$DIMLFAC
 40
1.0
  9
$DIMTOFL
 70
     0
  9
$DIMTVP
 40
0.0
  9
$DIMTIX
 70
     0
  9
$DIMSOXD
 70
     0
  9
$DIMSAH
 70
     0
  9
$DIMBLK1
  1

  9
$DIMBLK2
  1

  9
$DIMSTYLE
  2
Standard
  9
$DIMCLRD
 70
     0
  9
$DIMCLRE
 70
     0
  9
$DIMCLRT
 70
     0
  9
$DIMTFAC
 40
1.0
  9
$DIMGAP
 40
0.09
  9
$DIMJUST
 70
     0
  9
$DIMSD1
 70
     0
  9
$DIMSD2
 70
     0
  9
$DIMTOLJ
 70
     1
  9
$DIMTZIN
 70
     0
  9
$DIMALTZ
 70
     0
  9
$DIMALTTZ
 70
     0
  9
$DIMUPT
 70
     0
  9
$DIMDEC
 70
     4
  9
$DIMTDEC
 70
     4
  9
$DIMALTU
 70
     2
  9
$DIMALTTD
 70
     2
  9
$DIMTXSTY
  7
Standard
  9
$DIMAUNIT
 70
     0
  9
$DIMADEC
 70
     0
  9
$DIMALTRND
 40
0.0
  9
$DIMAZIN
 70
     0
  9
$DIMDSEP
 70
    46
  9
$DIMATFIT
 70
     3
  9
$DIMFRAC
 70
     0
  9
$DIMLDRBLK
  1

  9
$DIMLUNIT
 70
     2
  9
$DIMLWD
 70
    -2
  9
$DIMLWE
 70
    -2
  9
$DIMTMOVE
 70
     0
  9
$DIMFXL
 40
1.0
  9
$DIMFXLON
 70
     0
  9
$DIMJOGANG
 40
0.7853981633974483
  9
$DIMTFILL
 70
     0
  9
$DIMTFILLCLR
 70
     0
  9
$DIMARCSYM
 70
     0
  9
$DIMLTYPE
  6

  9
$DIMLTEX1
  6

  9
$DIMLTEX2
  6

  9
$DIMTXTDIRECTION
 70
     0
  9
$LUNITS
 70
     2
  9
$LUPREC
 70
     4
  9
$SKETCHINC
 40
0.1
  9
$FILLETRAD
 40
0.5
  9
$AUNITS
 70
     0
  9
$AUPREC
 70
     0
  9
$MENU
  1
.
  9
$ELEVATION
 40
0.0
  9
$PELEVATION
 40
0.0
  9
$THICKNESS
 40
0.0
  9
$LIMCHECK
 70
     0
  9
$CHAMFERA
 40
0.5
  9
$CHAMFERB
 40
0.5
  9
$CHAMFERC
 40
1.0
  9
$CHAMFERD
 40
0.0
  9
$SKPOLY
 70
     0
  9
$TDCREATE
 40
2458424.598402778
  9
$TDUCREATE
 40
2458424.890069445
  9
$TDUPDATE
 40
2458424.598402778
  9
$TDUUPDATE
 40
2458424.890069445
  9
$TDINDWG
 40
0.0000000116
  9
$TDUSRTIMER
 40
0.0000000116
  9
$USRTIMER
 70
     1
  9
$ANGBASE
 50
0.0
  9
$ANGDIR
 70
     0
  9
$PDMODE
 70
     0
  9
$PDSIZE
 40
0.0
  9
$PLINEWID
 40
0.0
  9
$SPLFRAME
 70
     0
  9
$SPLINETYPE
 70
     6
  9
$SPLINESEGS
 70
     8
  9
$HANDSEED
  5
9B
  9
$SURFTAB1
 70
     6
  9
$SURFTAB2
 70
     6
  9
$SURFTYPE
 70
     6
  9
$SURFU
 70
     6
  9
$SURFV
 70
     6
  9
$UCSBASE
  2

  9
$UCSNAME
  2

  9
$UCSORG
 10
0.0
 20
0.0
 30
0.0
  9
$UCSXDIR
 10
1.0
 20
0.0
 30
0.0
  9
$UCSYDIR
 10
0.0
 20
1.0
 30
0.0
  9
$UCSORTHOREF
  2

  9
$UCSORTHOVIEW
 70
     0
  9
$UCSORGTOP
 10
0.0
 20
0.0
 30
0.0
  9
$UCSORGBOTTOM
 10
0.0
 20
0.0
 30
0.0
  9
$UCSORGLEFT
 10
0.0
 20
0.0
 30
0.0
  9
$UCSORGRIGHT
 10
0.0
 20
0.0
 30
0.0
  9
$UCSORGFRONT
 10
0.0
 20
0.0
 30
0.0
  9
$UCSORGBACK
 10
0.0
 20
0.0
 30
0.0
  9
$PUCSBASE
  2

  9
$PUCSNAME
  2

  9
$PUCSORG
 10
0.0
 20
0.0
 30
0.0
  9
$PUCSXDIR
 10
1.0
 20
0.0
 30
0.0
  9
$PUCSYDIR
 10
0.0
 20
1.0
 30
0.0
  9
$PUCSORTHOREF
  2

  9
$PUCSORTHOVIEW
 70
     0
  9
$PUCSORGTOP
 10
0.0
 20
0.0
 30
0.0
  9
$PUCSORGBOTTOM
 10
0.0
 20
0.0
 30
0.0
  9
$PUCSORGLEFT
 10
0.0
 20
0.0
 30
0.0
  9
$PUCSORGRIGHT
 10
0.0
 20
0.0
 30
0.0
  9
$PUCSORGFRONT
 10
0.0
 20
0.0
 30
0.0
  9
$PUCSORGBACK
 10
0.0
 20
0.0
 30
0.0
  9
$USERI1
 70
     0
  9
$USERI2
 70
     0
  9
$USERI3
 70
     0
  9
$USERI4
 70
     0
  9
$USERI5
 70
     0
  9
$USERR1
 40
0.0
  9
$USERR2
 40
0.0
  9
$USERR3
 40
0.0
  9
$USERR4
 40
0.0
  9
$USERR5
 40
0.0
  9
$WORLDVIEW
 70
     1
  9
$SHADEDGE
 70
     3
  9
$SHADEDIF
 70
    70
  9
$TILEMODE
 70
     1
  9
$MAXACTVP
 70
    64
  9
$PINSBASE
 10
0.0
 20
0.0
 30
0.0
  9
$PLIMCHECK
 70
     0
  9
$PEXTMIN
 10
1.000000000000000E+20
 20
1.000000000000000E+20
 30
1.000000000000000E+20
  9
$PEXTMAX
 10
-1.000000000000000E+20
 20
-1.000000000000000E+20
 30
-1.000000000000000E+20
  9
$PLIMMIN
 10
0.0
 20
0.0
  9
$PLIMMAX
 10
12.0
 20
9.0
  9
$UNITMODE
 70
     0
  9
$VISRETAIN
 70
     1
  9
$PLINEGEN
 70
     0
  9
$PSLTSCALE
 70
     1
  9
$TREEDEPTH
 70
  3020
  9
$CMLSTYLE
  2
Standard
  9
$CMLJUST
 70
     0
  9
$CMLSCALE
 40
1.0
  9
$PROXYGRAPHICS
 70
     1
  9
$MEASUREMENT
 70
     0
  9
$CELWEIGHT
370
    -1
  9
$ENDCAPS
280
     0
  9
$JOINSTYLE
280
     0
  9
$LWDISPLAY
290
     1
  9
$INSUNITS
 70
     1
  9
$HYPERLINKBASE
  1

  9
$STYLESHEET
  1

  9
$XEDIT
290
     1
  9
$CEPSNTYPE
380
     0
  9
$PSTYLEMODE
290
     1
  9
$FINGERPRINTGUID
  2
{AC019F03-7E2C-0AA3-2D06-DF5306D6F3C3}
  9
$VERSIONGUID
  2
{FAEB1C32-E019-11D5-929B-00C0DF256EC4}
  9
$EXTNAMES
290
     1
  9
$PSVPSCALE
 40
0.0
  9
$OLESTARTUP
290
     0
  9
$SORTENTS
280
   127
  9
$INDEXCTL
280
     0
  9
$HIDETEXT
280
     1
  9
$XCLIPFRAME
280
     2
  9
$HALOGAP
280
     0
  9
$OBSCOLOR
 70
   257
  9
$OBSLTYPE
280
     0
  9
$INTERSECTIONDISPLAY
280
     0
  9
$INTERSECTIONCOLOR
 70
   257
  9
$DIMASSOC
280
     2
  9
$PROJECTNAME
  1

  9
$CAMERADISPLAY
290
     0
  9
$LENSLENGTH
 40
50.0
  9
$CAMERAHEIGHT
 40
0.0
  9
$STEPSPERSEC
 40
2.0
  9
$STEPSIZE
 40
6.0
  9
$3DDWFPREC
 40
2.0
  9
$PSOLWIDTH
 40
0.25
  9
$PSOLHEIGHT
 40
4.0
  9
$LOFTANG1
 40
1.570796326794897
  9
$LOFTANG2
 40
1.570796326794897
  9
$LOFTMAG1
 40
0.0
  9
$LOFTMAG2
 40
0.0
  9
$LOFTPARAM
 70
     7
  9
$LOFTNORMALS
280
     1
  9
$LATITUDE
 40
37.795
  9
$LONGITUDE
 40
-122.394
  9
$NORTHDIRECTION
 40
0.0
  9
$TIMEZONE
 70
 -8000
  9
$LIGHTGLYPHDISPLAY
280
     1
  9
$TILEMODELIGHTSYNCH
280
     1
  9
$CMATERIAL
347
3C
  9
$SOLIDHIST
280
     1
  9
$SHOWHIST
280
     1
  9
$DWFFRAME
280
     2
  9
$DGNFRAME
280
     2
  9
$REALWORLDSCALE
290
     1
  9
$INTERFERECOLOR
 62
   256
  9
$CSHADOW
280
     0
  9
$SHADOWPLANELOCATION
 40
0.0
  0
ENDSEC
  0
SECTION
  2
CLASSES
  0
CLASS
  1
ACDBDICTIONARYWDFLT
  2
AcDbDictionaryWithDefault
  3
ObjectDBX Classes
 90
        0
 91
        4
280
     0
281
     0
  0
CLASS
  1
VISUALSTYLE
  2
AcDbVisualStyle
  3
ObjectDBX Classes
 90
     4095
 91
        4
280
     0
281
     0
  0
CLASS
  1
MATERIAL
  2
AcDbMaterial
  3
ObjectDBX Classes
 90
     1153
 91
        4
280
     0
281
     0
  0
CLASS
  1
SUN
  2
AcDbSun
  3
SCENEOE
 90
     1024
 91
        4
280
     0
281
     0
  0
ENDSEC
  0
SECTION
  2
TABLES
  0
TABLE
  2
VPORT
  5
8
330
0
100
AcDbSymbolTable
 70
     1
  0
VPORT
  5
29
330
8
100
AcDbSymbolTableRecord
100
AcDbViewportTableRecord
  2
*Active
 70
     0
 10
0.0
 20
0.0
 11
1.0
 21
1.0
 12
0.0
 22
0.0
 13
0.0
 23
0.0
 14
0.5
 24
0.5
 15
0.5
 25
0.5
 16
0.0
 26
0.0
 36
1.0
 17
203.8126571827303
 27
-307.2671465184217
 37
0.0
 40
140.8083888275645
 41
2.526816190567795
 42
50.0
 43
0.0
 44
0.0
 50
0.0
 51
0.0
 71
     0
 72
   100
 73
     1
 74
     3
 75
     0
 76
     0
 77
     0
 78
     0
281
     0
 65
     1
110
0.0
120
0.0
130
0.0
111
1.0
121
0.0
131
0.0
112
0.0
122
1.0
132
0.0
 79
     0
146
0.0
 60
     3
 61
     5
292
     1
282
     1
141
0.0
142
0.0
 63
   250
361
3F
  0
ENDTAB
  0
TABLE
  2
LTYPE
  5
5
330
0
100
AcDbSymbolTable
 70
     1
  0
LTYPE
  5
14
330
5
100
AcDbSymbolTableRecord
100
AcDbLinetypeTableRecord
  2
ByBlock
 70
     0
  3

 72
    65
 73
     0
 40
0.0
  0
LTYPE
  5
15
330
5
100
AcDbSymbolTableRecord
100
AcDbLinetypeTableRecord
  2
ByLayer
 70
     0
  3

 72
    65
 73
     0
 40
0.0
  0
LTYPE
  5
16
330
5
100
AcDbSymbolTableRecord
100
AcDbLinetypeTableRecord
  2
Continuous
 70
     0
  3
Solid line
 72
    65
 73
     0
 40
0.0
  0
ENDTAB
  0
TABLE
  2
LAYER
  5
2
330
0
100
AcDbSymbolTable
 70
     5
  0
LAYER
  5
10
330
2
100
AcDbSymbolTableRecord
100
AcDbLayerTableRecord
  2
0
 70
     0
 62
     7
  6
Continuous
370
    -3
390
F
347
3E
  0
LAYER
  5
40
330
2
100
AcDbSymbolTableRecord
100
AcDbLayerTableRecord
  2
Top
 70
     0
 62
     7
  6
Continuous
370
    -3
390
F
347
3E
  0
LAYER
  5
47
330
2
100
AcDbSymbolTableRecord
100
AcDbLayerTableRecord
  2
Bottom
 70
     0
 62
     7
  6
Continuous
370
    -3
390
F
347
3E
  0
LAYER
  5
6F
330
2
100
AcDbSymbolTableRecord
100
AcDbLayerTableRecord
  2
MidSection2x
 70
     0
 62
     7
  6
Continuous
370
    -3
390
F
347
3E
  0
LAYER
  5
8D
330
2
100
AcDbSymbolTableRecord
100
AcDbLayerTableRecord
  2
testCut
 70
     1
 62
     7
  6
Continuous
370
    -3
390
F
347
3E
  0
ENDTAB
  0
TABLE
  2
STYLE
  5
3
330
0
100
AcDbSymbolTable
 70
     1
  0
STYLE
  5
11
330
3
100
AcDbSymbolTableRecord
100
AcDbTextStyleTableRecord
  2
Standard
 70
     0
 40
0.0
 41
1.0
 50
0.0
 71
     0
 42
0.2
  3
txt
  4

  0
ENDTAB
  0
TABLE
  2
VIEW
  5
6
330
0
100
AcDbSymbolTable
 70
     0
  0
ENDTAB
  0
TABLE
  2
UCS
  5
7
330
0
100
AcDbSymbolTable
 70
     0
  0
ENDTAB
  0
TABLE
  2
APPID
  5
9
330
0
100
AcDbSymbolTable
 70
     1
  0
APPID
  5
12
330
9
100
AcDbSymbolTableRecord
100
AcDbRegAppTableRecord
  2
ACAD
 70
     0
  0
ENDTAB
  0
TABLE
  2
DIMSTYLE
  5
A
330
0
100
AcDbSymbolTable
 70
     1
100
AcDbDimStyleTable
  0
DIMSTYLE
105
27
330
A
100
AcDbSymbolTableRecord
100
AcDbDimStyleTableRecord
  2
Standard
 70
     0
178
     0
340
11
  0
ENDTAB
  0
TABLE
  2
BLOCK_RECORD
  5
1
330
0
100
AcDbSymbolTable
 70
     2
  0
BLOCK_RECORD
  5
1F
330
1
100
AcDbSymbolTableRecord
100
AcDbBlockTableRecord
  2
*Model_Space
340
22
 70
     0
280
     1
281
     0
  0
BLOCK_RECORD
  5
1B
330
1
100
AcDbSymbolTableRecord
100
AcDbBlockTableRecord
  2
*Paper_Space
340
1E
 70
     0
280
     1
281
     0
  0
BLOCK_RECORD
  5
23
330
1
100
AcDbSymbolTableRecord
100
AcDbBlockTableRecord
  2
*Paper_Space0
340
26
 70
     0
280
     1
281
     0
  0
BLOCK_RECORD
  5
4D
330
1
100
AcDbSymbolTableRecord
100
AcDbBlockTableRecord
  2
block 2
340
0
102
{BLKREFS
331
4E
102
}
 70
     0
280
     1
281
     0
  0
ENDTAB
  0
ENDSEC
  0
SECTION
  2
BLOCKS
  0
BLOCK
  5
20
330
1F
100
AcDbEntity
  8
0
100
AcDbBlockBegin
  2
*Model_Space
 70
     0
 10
0.0
 20
0.0
 30
0.0
  3
*Model_Space
  1

  0
ENDBLK
  5
21
330
1F
100
AcDbEntity
  8
0
100
AcDbBlockEnd
  0
BLOCK
  5
1C
330
1B
100
AcDbEntity
 67
     1
  8
0
100
AcDbBlockBegin
  2
*Paper_Space
 70
     0
 10
0.0
 20
0.0
 30
0.0
  3
*Paper_Space
  1

  0
ENDBLK
  5
1D
330
1B
100
AcDbEntity
 67
     1
  8
0
100
AcDbBlockEnd
  0
BLOCK
  5
24
330
23
100
AcDbEntity
  8
0
100
AcDbBlockBegin
  2
*Paper_Space0
 70
     0
 10
0.0
 20
0.0
 30
0.0
  3
*Paper_Space0
  1

  0
ENDBLK
  5
25
330
23
100
AcDbEntity
  8
0
100
AcDbBlockEnd
  0
BLOCK
  5
4F
330
4D
100
AcDbEntity
  8
0
100
AcDbBlockBegin
  2
block 2
 70
     0
 10
0.0
 20
0.0
 30
0.0
  3
block 2
  1

  0
SPLINE
  5
51
330
4D
100
AcDbEntity
  8
Bottom
 62
     7
420
 16777215
370
     9
100
AcDbSpline
210
0.0
220
0.0
230
1.0
 70
    11
 71
     3
 72
    17
 73
    13
 74
     0
 42
0.0000000001
 43
0.0000000001
 12
1.0
 22
0.0
 32
0.0
 13
1.0
 23
0.0
 33
0.0
 40
0.0
 40
0.0
 40
0.0
 40
0.0
 40
1.0
 40
1.0
 40
1.0
 40
2.0
 40
2.0
 40
2.0
 40
3.0
 40
3.0
 40
3.0
 40
4.0
 40
4.0
 40
4.0
 40
4.0
 10
184.5531727638063
 20
-314.3626207555744
 30
0.0
 10
182.8889194958196
 20
-314.3626207555744
 30
0.0
 10
181.5397722818589
 20
-313.0134735416117
 30
0.0
 10
181.5397722818589
 20
-311.3492560202028
 30
0.0
 10
181.5397722818589
 20
-309.6849670056401
 30
0.0
 10
182.8889194958196
 20
-308.3358197916781
 30
0.0
 10
184.5531727638063
 20
-308.3358197916781
 30
0.0
 10
186.2174260317925
 20
-308.3358197916781
 30
0.0
 10
187.5665732457532
 20
-309.6849670056401
 30
0.0
 10
187.5665732457532
 20
-311.3492560202028
 30
0.0
 10
187.5665732457532
 20
-313.0134735416117
 30
0.0
 10
186.2174260317925
 20
-314.3626207555744
 30
0.0
 10
184.5531727638063
 20
-314.3626207555744
 30
0.0
  0
SPLINE
  5
52
330
4D
100
AcDbEntity
  8
Bottom
 62
     7
420
 16777215
370
     9
100
AcDbSpline
210
0.0
220
0.0
230
1.0
 70
    11
 71
     3
 72
    17
 73
    13
 74
     0
 42
0.0000000001
 43
0.0000000001
 12
1.0
 22
0.0
 32
0.0
 13
1.0
 23
0.0
 33
0.0
 40
0.0
 40
0.0
 40
0.0
 40
0.0
 40
1.0
 40
1.0
 40
1.0
 40
2.0
 40
2.0
 40
2.0
 40
3.0
 40
3.0
 40
3.0
 40
4.0
 40
4.0
 40
4.0
 40
4.0
 10
184.5531727638063
 20
-307.3948269651141
 30
0.0
 10
182.8889194958196
 20
-307.3948269651141
 30
0.0
 10
181.5397722818589
 20
-306.0457512443026
 30
0.0
 10
181.5397722818589
 20
-304.3814622297399
 30
0.0
 10
181.5397722818589
 20
-302.7171732151799
 30
0.0
 10
182.8889194958196
 20
-301.3680974943683
 30
0.0
 10
184.5531727638063
 20
-301.3680974943683
 30
0.0
 10
186.2174260317925
 20
-301.3680974943683
 30
0.0
 10
187.5665732457532
 20
-302.7171732151799
 30
0.0
 10
187.5665732457532
 20
-304.3814622297399
 30
0.0
 10
187.5665732457532
 20
-306.0457512443026
 30
0.0
 10
186.2174260317925
 20
-307.3948269651141
 30
0.0
 10
184.5531727638063
 20
-307.3948269651141
 30
0.0
  0
SPLINE
  5
53
330
4D
100
AcDbEntity
  8
Bottom
 62
     7
420
 16777215
370
     9
100
AcDbSpline
210
0.0
220
0.0
230
1.0
 70
    11
 71
     3
 72
    17
 73
    13
 74
     0
 42
0.0000000001
 43
0.0000000001
 12
1.0
 22
0.0
 32
0.0
 13
1.0
 23
0.0
 33
0.0
 40
0.0
 40
0.0
 40
0.0
 40
0.0
 40
1.0
 40
1.0
 40
1.0
 40
2.0
 40
2.0
 40
2.0
 40
3.0
 40
3.0
 40
3.0
 40
4.0
 40
4.0
 40
4.0
 40
4.0
 10
184.5531727638063
 20
-300.4271046678016
 30
0.0
 10
182.8889194958196
 20
-300.4271046678016
 30
0.0
 10
181.5397722818589
 20
-299.0779574538397
 30
0.0
 10
181.5397722818589
 20
-297.4136684392796
 30
0.0
 10
181.5397722818589
 20
-295.7494509178674
 30
0.0
 10
182.8889194958196
 20
-294.400375197056
 30
0.0
 10
184.5531727638063
 20
-294.400375197056
 30
0.0
 10
186.2174260317925
 20
-294.400375197056
 30
0.0
 10
187.5665732457532
 20
-295.7494509178674
 30
0.0
 10
187.5665732457532
 20
-297.4136684392796
 30
0.0
 10
187.5665732457532
 20
-299.0779574538397
 30
0.0
 10
186.2174260317925
 20
-300.4271046678016
 30
0.0
 10
184.5531727638063
 20
-300.4271046678016
 30
0.0
  0
SPLINE
  5
54
330
4D
100
AcDbEntity
  8
Bottom
 62
     7
420
 16777215
370
     9
100
AcDbSpline
210
0.0
220
0.0
230
1.0
 70
    11
 71
     3
 72
    17
 73
    13
 74
     0
 42
0.0000000001
 43
0.0000000001
 12
1.0
 22
0.0
 32
0.0
 13
1.0
 23
0.0
 33
0.0
 40
0.0
 40
0.0
 40
0.0
 40
0.0
 40
1.0
 40
1.0
 40
1.0
 40
2.0
 40
2.0
 40
2.0
 40
3.0
 40
3.0
 40
3.0
 40
4.0
 40
4.0
 40
4.0
 40
4.0
 10
191.648188612835
 20
-314.3626207555744
 30
0.0
 10
189.9839353448489
 20
-314.3626207555744
 30
0.0
 10
188.6348238774628
 20
-313.0134735416117
 30
0.0
 10
188.6348238774628
 20
-311.3492560202028
 30
0.0
 10
188.6348238774628
 20
-309.6849670056401
 30
0.0
 10
189.9839353448489
 20
-308.3358197916781
 30
0.0
 10
191.648188612835
 20
-308.3358197916781
 30
0.0
 10
193.3124418808224
 20
-308.3358197916781
 30
0.0
 10
194.6615890947825
 20
-309.6849670056401
 30
0.0
 10
194.6615890947825
 20
-311.3492560202028
 30
0.0
 10
194.6615890947825
 20
-313.0134735416117
 30
0.0
 10
193.3124418808224
 20
-314.3626207555744
 30
0.0
 10
191.648188612835
 20
-314.3626207555744
 30
0.0
  0
SPLINE
  5
55
330
4D
100
AcDbEntity
  8
Bottom
 62
     7
420
 16777215
370
     9
100
AcDbSpline
210
0.0
220
0.0
230
1.0
 70
    11
 71
     3
 72
    17
 73
    13
 74
     0
 42
0.0000000001
 43
0.0000000001
 12
1.0
 22
0.0
 32
0.0
 13
1.0
 23
0.0
 33
0.0
 40
0.0
 40
0.0
 40
0.0
 40
0.0
 40
1.0
 40
1.0
 40
1.0
 40
2.0
 40
2.0
 40
2.0
 40
3.0
 40
3.0
 40
3.0
 40
4.0
 40
4.0
 40
4.0
 40
4.0
 10
191.648188612835
 20
-307.3948269651141
 30
0.0
 10
189.9839353448489
 20
-307.3948269651141
 30
0.0
 10
188.6348238774628
 20
-306.0457512443026
 30
0.0
 10
188.6348238774628
 20
-304.3814622297399
 30
0.0
 10
188.6348238774628
 20
-302.7171732151799
 30
0.0
 10
189.9839353448489
 20
-301.3680974943683
 30
0.0
 10
191.648188612835
 20
-301.3680974943683
 30
0.0
 10
193.3124418808224
 20
-301.3680974943683
 30
0.0
 10
194.6615890947825
 20
-302.7171732151799
 30
0.0
 10
194.6615890947825
 20
-304.3814622297399
 30
0.0
 10
194.6615890947825
 20
-306.0457512443026
 30
0.0
 10
193.3124418808224
 20
-307.3948269651141
 30
0.0
 10
191.648188612835
 20
-307.3948269651141
 30
0.0
  0
SPLINE
  5
56
330
4D
100
AcDbEntity
  8
Bottom
 62
     7
420
 16777215
370
     9
100
AcDbSpline
210
0.0
220
0.0
230
1.0
 70
    11
 71
     3
 72
    17
 73
    13
 74
     0
 42
0.0000000001
 43
0.0000000001
 12
1.0
 22
0.0
 32
0.0
 13
1.0
 23
0.0
 33
0.0
 40
0.0
 40
0.0
 40
0.0
 40
0.0
 40
1.0
 40
1.0
 40
1.0
 40
2.0
 40
2.0
 40
2.0
 40
3.0
 40
3.0
 40
3.0
 40
4.0
 40
4.0
 40
4.0
 40
4.0
 10
191.648188612835
 20
-300.4271046678016
 30
0.0
 10
189.9839353448489
 20
-300.4271046678016
 30
0.0
 10
188.6348238774628
 20
-299.0779574538397
 30
0.0
 10
188.6348238774628
 20
-297.4136684392796
 30
0.0
 10
188.6348238774628
 20
-295.7494509178674
 30
0.0
 10
189.9839353448489
 20
-294.400375197056
 30
0.0
 10
191.648188612835
 20
-294.400375197056
 30
0.0
 10
193.3124418808224
 20
-294.400375197056
 30
0.0
 10
194.6615890947825
 20
-295.7494509178674
 30
0.0
 10
194.6615890947825
 20
-297.4136684392796
 30
0.0
 10
194.6615890947825
 20
-299.0779574538397
 30
0.0
 10
193.3124418808224
 20
-300.4271046678016
 30
0.0
 10
191.648188612835
 20
-300.4271046678016
 30
0.0
  0
SPLINE
  5
57
330
4D
100
AcDbEntity
  8
Bottom
 62
     7
420
 16777215
370
     9
100
AcDbSpline
210
0.0
220
0.0
230
1.0
 70
    11
 71
     3
 72
    17
 73
    13
 74
     0
 42
0.0000000001
 43
0.0000000001
 12
1.0
 22
0.0
 32
0.0
 13
1.0
 23
0.0
 33
0.0
 40
0.0
 40
0.0
 40
0.0
 40
0.0
 40
1.0
 40
1.0
 40
1.0
 40
2.0
 40
2.0
 40
2.0
 40
3.0
 40
3.0
 40
3.0
 40
4.0
 40
4.0
 40
4.0
 40
4.0
 10
198.7432402084389
 20
-314.3626207555744
 30
0.0
 10
197.0789869404528
 20
-314.3626207555744
 30
0.0
 10
195.7298397264921
 20
-313.0134735416117
 30
0.0
 10
195.7298397264921
 20
-311.3492560202028
 30
0.0
 10
195.7298397264921
 20
-309.6849670056401
 30
0.0
 10
197.0789869404528
 20
-308.3358197916781
 30
0.0
 10
198.7432402084389
 20
-308.3358197916781
 30
0.0
 10
200.4074934764263
 20
-308.3358197916781
 30
0.0
 10
201.7566406903864
 20
-309.6849670056401
 30
0.0
 10
201.7566406903864
 20
-311.3492560202028
 30
0.0
 10
201.7566406903864
 20
-313.0134735416117
 30
0.0
 10
200.4074934764263
 20
-314.3626207555744
 30
0.0
 10
198.7432402084389
 20
-314.3626207555744
 30
0.0
  0
SPLINE
  5
58
330
4D
100
AcDbEntity
  8
Bottom
 62
     7
420
 16777215
370
     9
100
AcDbSpline
210
0.0
220
0.0
230
1.0
 70
    11
 71
     3
 72
    17
 73
    13
 74
     0
 42
0.0000000001
 43
0.0000000001
 12
1.0
 22
0.0
 32
0.0
 13
1.0
 23
0.0
 33
0.0
 40
0.0
 40
0.0
 40
0.0
 40
0.0
 40
1.0
 40
1.0
 40
1.0
 40
2.0
 40
2.0
 40
2.0
 40
3.0
 40
3.0
 40
3.0
 40
4.0
 40
4.0
 40
4.0
 40
4.0
 10
198.7432402084389
 20
-307.3948269651141
 30
0.0
 10
197.0789869404528
 20
-307.3948269651141
 30
0.0
 10
195.7298397264921
 20
-306.0457512443026
 30
0.0
 10
195.7298397264921
 20
-304.3814622297399
 30
0.0
 10
195.7298397264921
 20
-302.7171732151799
 30
0.0
 10
197.0789869404528
 20
-301.3680974943683
 30
0.0
 10
198.7432402084389
 20
-301.3680974943683
 30
0.0
 10
200.4074934764263
 20
-301.3680974943683
 30
0.0
 10
201.7566406903864
 20
-302.7171732151799
 30
0.0
 10
201.7566406903864
 20
-304.3814622297399
 30
0.0
 10
201.7566406903864
 20
-306.0457512443026
 30
0.0
 10
200.4074934764263
 20
-307.3948269651141
 30
0.0
 10
198.7432402084389
 20
-307.3948269651141
 30
0.0
  0
SPLINE
  5
59
330
4D
100
AcDbEntity
  8
Bottom
 62
     7
420
 16777215
370
     9
100
AcDbSpline
210
0.0
220
0.0
230
1.0
 70
    11
 71
     3
 72
    17
 73
    13
 74
     0
 42
0.0000000001
 43
0.0000000001
 12
1.0
 22
0.0
 32
0.0
 13
1.0
 23
0.0
 33
0.0
 40
0.0
 40
0.0
 40
0.0
 40
0.0
 40
1.0
 40
1.0
 40
1.0
 40
2.0
 40
2.0
 40
2.0
 40
3.0
 40
3.0
 40
3.0
 40
4.0
 40
4.0
 40
4.0
 40
4.0
 10
198.7432402084389
 20
-300.4271046678016
 30
0.0
 10
197.0789869404528
 20
-300.4271046678016
 30
0.0
 10
195.7298397264921
 20
-299.0779574538397
 30
0.0
 10
195.7298397264921
 20
-297.4136684392796
 30
0.0
 10
195.7298397264921
 20
-295.7494509178674
 30
0.0
 10
197.0789869404528
 20
-294.400375197056
 30
0.0
 10
198.7432402084389
 20
-294.400375197056
 30
0.0
 10
200.4074934764263
 20
-294.400375197056
 30
0.0
 10
201.7566406903864
 20
-295.7494509178674
 30
0.0
 10
201.7566406903864
 20
-297.4136684392796
 30
0.0
 10
201.7566406903864
 20
-299.0779574538397
 30
0.0
 10
200.4074934764263
 20
-300.4271046678016
 30
0.0
 10
198.7432402084389
 20
-300.4271046678016
 30
0.0
  0
SPLINE
  5
5A
330
4D
100
AcDbEntity
  8
Bottom
 62
     7
420
 16777215
370
     9
100
AcDbSpline
210
0.0
220
0.0
230
1.0
 70
    11
 71
     3
 72
    17
 73
    13
 74
     0
 42
0.0000000001
 43
0.0000000001
 12
1.0
 22
0.0
 32
0.0
 13
1.0
 23
0.0
 33
0.0
 40
0.0
 40
0.0
 40
0.0
 40
0.0
 40
1.0
 40
1.0
 40
1.0
 40
2.0
 40
2.0
 40
2.0
 40
3.0
 40
3.0
 40
3.0
 40
4.0
 40
4.0
 40
4.0
 40
4.0
 10
184.5531727638063
 20
-293.4593823704886
 30
0.0
 10
186.2174260317925
 20
-293.4593823704886
 30
0.0
 10
187.5665732457532
 20
-292.1101636633794
 30
0.0
 10
187.5665732457532
 20
-290.4459461419672
 30
0.0
 10
187.5665732457532
 20
-289.930552031136
 30
0.0
 10
187.4251597971169
 20
-289.4528348098092
 30
0.0
 10
187.1970966519454
 20
-289.0285944639003
 30
0.0
 10
185.232464918617
 20
-289.5972509707044
 30
0.0
 10
183.4245461678022
 20
-290.5317379207152
 30
0.0
 10
181.8504457606496
 20
-291.7549856993627
 30
0.0
 10
182.3387797145982
 20
-292.7604653462878
 30
0.0
 10
183.3602738268902
 20
-293.4593823704886
 30
0.0
 10
184.5531727638063
 20
-293.4593823704886
 30
0.0
  0
SPLINE
  5
5B
330
4D
100
AcDbEntity
  8
Bottom
 62
     7
420
 16777215
370
     9
100
AcDbSpline
210
0.0
220
0.0
230
1.0
 70
    11
 71
     3
 72
    23
 73
    19
 74
     0
 42
0.0000000001
 43
0.0000000001
 12
1.0
 22
0.0
 32
0.0
 13
1.0
 23
0.0
 33
0.0
 40
0.0
 40
0.0
 40
0.0
 40
0.0
 40
1.0
 40
1.0
 40
1.0
 40
2.0
 40
2.0
 40
2.0
 40
3.0
 40
3.0
 40
3.0
 40
4.0
 40
4.0
 40
4.0
 40
5.0
 40
5.0
 40
5.0
 40
6.0
 40
6.0
 40
6.0
 40
6.0
 10
191.648188612835
 20
-293.4593823704886
 30
0.0
 10
193.3124418808224
 20
-293.4593823704886
 30
0.0
 10
194.6615890947825
 20
-292.1101636633794
 30
0.0
 10
194.6615890947825
 20
-290.4459461419672
 30
0.0
 10
194.6615890947825
 20
-289.7317295838882
 30
0.0
 10
194.402748148985
 20
-289.084359120087
 30
0.0
 10
193.9875159398453
 20
-288.5679641051753
 30
0.0
 10
193.2237546295412
 20
-288.4558628476094
 30
0.0
 10
192.4430851895097
 20
-288.3958086024876
 30
0.0
 10
191.6482243594102
 20
-288.3958086024876
 30
0.0
 10
190.8533277827355
 20
-288.3958086024876
 30
0.0
 10
190.072658342704
 20
-288.4558628476094
 30
0.0
 10
189.308861285826
 20
-288.5679641051753
 30
0.0
 10
188.8936648232602
 20
-289.084359120087
 30
0.0
 10
188.6348238774628
 20
-289.7317295838882
 30
0.0
 10
188.6348238774628
 20
-290.4459461419672
 30
0.0
 10
188.6348238774628
 20
-292.1101636633794
 30
0.0
 10
189.9839353448489
 20
-293.4593823704886
 30
0.0
 10
191.648188612835
 20
-293.4593823704886
 30
0.0
  0
SPLINE
  5
5C
330
4D
100
AcDbEntity
  8
Bottom
 62
     7
420
 16777215
370
     9
100
AcDbSpline
210
0.0
220
0.0
230
1.0
 70
    11
 71
     3
 72
    17
 73
    13
 74
     0
 42
0.0000000001
 43
0.0000000001
 12
1.0
 22
0.0
 32
0.0
 13
1.0
 23
0.0
 33
0.0
 40
0.0
 40
0.0
 40
0.0
 40
0.0
 40
1.0
 40
1.0
 40
1.0
 40
2.0
 40
2.0
 40
2.0
 40
3.0
 40
3.0
 40
3.0
 40
4.0
 40
4.0
 40
4.0
 40
4.0
 10
198.7432402084389
 20
-293.4593823704886
 30
0.0
 10
199.9361391453551
 20
-293.4593823704886
 30
0.0
 10
200.9576332576471
 20
-292.7604653462878
 30
0.0
 10
201.4459672115957
 20
-291.7549856993627
 30
0.0
 10
199.8719025510176
 20
-290.5317379207152
 30
0.0
 10
198.0639480536283
 20
-289.597322463851
 30
0.0
 10
196.0993163203005
 20
-289.0285944639003
 30
0.0
 10
195.8712531751284
 20
-289.4528348098092
 30
0.0
 10
195.7298397264921
 20
-289.930552031136
 30
0.0
 10
195.7298397264921
 20
-290.4459461419672
 30
0.0
 10
195.7298397264921
 20
-292.1101636633794
 30
0.0
 10
197.0789869404528
 20
-293.4593823704886
 30
0.0
 10
198.7432402084389
 20
-293.4593823704886
 30
0.0
  0
SPLINE
  5
5D
330
4D
100
AcDbEntity
  8
Bottom
 62
     7
420
 16777215
370
     9
100
AcDbSpline
210
0.0
220
0.0
230
1.0
 70
    11
 71
     3
 72
    17
 73
    13
 74
     0
 42
0.0000000001
 43
0.0000000001
 12
1.0
 22
0.0
 32
0.0
 13
1.0
 23
0.0
 33
0.0
 40
0.0
 40
0.0
 40
0.0
 40
0.0
 40
1.0
 40
1.0
 40
1.0
 40
2.0
 40
2.0
 40
2.0
 40
3.0
 40
3.0
 40
3.0
 40
4.0
 40
4.0
 40
4.0
 40
4.0
 10
180.4715216501492
 20
-297.4136684392796
 30
0.0
 10
180.4715216501492
 20
-296.2647735355475
 30
0.0
 10
179.8211127275164
 20
-295.2781680799454
 30
0.0
 10
178.8754370996928
 20
-294.7697802977152
 30
0.0
 10
177.6758535533496
 20
-296.3612892866398
 30
0.0
 10
176.7696778903243
 20
-298.1849365302227
 30
0.0
 10
176.2300476020002
 20
-300.1603637290439
 30
0.0
 10
176.6058513394902
 20
-300.3287300948378
 30
0.0
 10
177.0196536856516
 20
-300.4271046678016
 30
0.0
 10
177.4581211682024
 20
-300.4271046678016
 30
0.0
 10
179.1223744361886
 20
-300.4271046678016
 30
0.0
 10
180.4715216501492
 20
-299.0779574538397
 30
0.0
 10
180.4715216501492
 20
-297.4136684392796
 30
0.0
  0
SPLINE
  5
5E
330
4D
100
AcDbEntity
  8
Bottom
 62
     7
420
 16777215
370
     9
100
AcDbSpline
210
0.0
220
0.0
230
1.0
 70
    11
 71
     3
 72
    17
 73
    13
 74
     0
 42
0.0000000001
 43
0.0000000001
 12
1.0
 22
0.0
 32
0.0
 13
1.0
 23
0.0
 33
0.0
 40
0.0
 40
0.0
 40
0.0
 40
0.0
 40
1.0
 40
1.0
 40
1.0
 40
2.0
 40
2.0
 40
2.0
 40
3.0
 40
3.0
 40
3.0
 40
4.0
 40
4.0
 40
4.0
 40
4.0
 10
184.5531727638063
 20
-294.400375197056
 30
0.0
 10
182.8889194958196
 20
-294.400375197056
 30
0.0
 10
181.5397722818589
 20
-295.7494509178674
 30
0.0
 10
181.5397722818589
 20
-297.4136684392796
 30
0.0
 10
181.5397722818589
 20
-299.0779574538397
 30
0.0
 10
182.8889194958196
 20
-300.4271046678016
 30
0.0
 10
184.5531727638063
 20
-300.4271046678016
 30
0.0
 10
186.2174260317925
 20
-300.4271046678016
 30
0.0
 10
187.5665732457532
 20
-299.0779574538397
 30
0.0
 10
187.5665732457532
 20
-297.4136684392796
 30
0.0
 10
187.5665732457532
 20
-295.7494509178674
 30
0.0
 10
186.2174260317925
 20
-294.400375197056
 30
0.0
 10
184.5531727638063
 20
-294.400375197056
 30
0.0
  0
SPLINE
  5
5F
330
4D
100
AcDbEntity
  8
Bottom
 62
     7
420
 16777215
370
     9
100
AcDbSpline
210
0.0
220
0.0
230
1.0
 70
    11
 71
     3
 72
    17
 73
    13
 74
     0
 42
0.0000000001
 43
0.0000000001
 12
1.0
 22
0.0
 32
0.0
 13
1.0
 23
0.0
 33
0.0
 40
0.0
 40
0.0
 40
0.0
 40
0.0
 40
1.0
 40
1.0
 40
1.0
 40
2.0
 40
2.0
 40
2.0
 40
3.0
 40
3.0
 40
3.0
 40
4.0
 40
4.0
 40
4.0
 40
4.0
 10
191.648188612835
 20
-294.400375197056
 30
0.0
 10
189.9839353448489
 20
-294.400375197056
 30
0.0
 10
188.6348238774628
 20
-295.7494509178674
 30
0.0
 10
188.6348238774628
 20
-297.4136684392796
 30
0.0
 10
188.6348238774628
 20
-299.0779574538397
 30
0.0
 10
189.9839353448489
 20
-300.4271046678016
 30
0.0
 10
191.648188612835
 20
-300.4271046678016
 30
0.0
 10
193.3124418808224
 20
-300.4271046678016
 30
0.0
 10
194.6615890947825
 20
-299.0779574538397
 30
0.0
 10
194.6615890947825
 20
-297.4136684392796
 30
0.0
 10
194.6615890947825
 20
-295.7494509178674
 30
0.0
 10
193.3124418808224
 20
-294.400375197056
 30
0.0
 10
191.648188612835
 20
-294.400375197056
 30
0.0
  0
SPLINE
  5
60
330
4D
100
AcDbEntity
  8
Bottom
 62
     7
420
 16777215
370
     9
100
AcDbSpline
210
0.0
220
0.0
230
1.0
 70
    11
 71
     3
 72
    17
 73
    13
 74
     0
 42
0.0000000001
 43
0.0000000001
 12
1.0
 22
0.0
 32
0.0
 13
1.0
 23
0.0
 33
0.0
 40
0.0
 40
0.0
 40
0.0
 40
0.0
 40
1.0
 40
1.0
 40
1.0
 40
2.0
 40
2.0
 40
2.0
 40
3.0
 40
3.0
 40
3.0
 40
4.0
 40
4.0
 40
4.0
 40
4.0
 10
198.7432402084389
 20
-294.400375197056
 30
0.0
 10
197.0789869404528
 20
-294.400375197056
 30
0.0
 10
195.7298397264921
 20
-295.7494509178674
 30
0.0
 10
195.7298397264921
 20
-297.4136684392796
 30
0.0
 10
195.7298397264921
 20
-299.0779574538397
 30
0.0
 10
197.0789869404528
 20
-300.4271046678016
 30
0.0
 10
198.7432402084389
 20
-300.4271046678016
 30
0.0
 10
200.4074934764263
 20
-300.4271046678016
 30
0.0
 10
201.7566406903864
 20
-299.0779574538397
 30
0.0
 10
201.7566406903864
 20
-297.4136684392796
 30
0.0
 10
201.7566406903864
 20
-295.7494509178674
 30
0.0
 10
200.4074934764263
 20
-294.400375197056
 30
0.0
 10
198.7432402084389
 20
-294.400375197056
 30
0.0
  0
SPLINE
  5
61
330
4D
100
AcDbEntity
  8
Bottom
 62
     7
420
 16777215
370
     9
100
AcDbSpline
210
0.0
220
0.0
230
1.0
 70
    11
 71
     3
 72
    17
 73
    13
 74
     0
 42
0.0000000001
 43
0.0000000001
 12
1.0
 22
0.0
 32
0.0
 13
1.0
 23
0.0
 33
0.0
 40
0.0
 40
0.0
 40
0.0
 40
0.0
 40
1.0
 40
1.0
 40
1.0
 40
2.0
 40
2.0
 40
2.0
 40
3.0
 40
3.0
 40
3.0
 40
4.0
 40
4.0
 40
4.0
 40
4.0
 10
202.824855575522
 20
-297.4136684392796
 30
0.0
 10
202.824855575522
 20
-299.0779574538397
 30
0.0
 10
204.1740027894821
 20
-300.4271046678016
 30
0.0
 10
205.8382560574689
 20
-300.4271046678016
 30
0.0
 10
206.2767235400196
 20
-300.4271046678016
 30
0.0
 10
206.6905258861804
 20
-300.3287300948378
 30
0.0
 10
207.0663653702451
 20
-300.1602922358935
 30
0.0
 10
206.526735081921
 20
-298.1849365302227
 30
0.0
 10
205.6205594188956
 20
-296.3613607797864
 30
0.0
 10
204.4209758725524
 20
-294.7697802977152
 30
0.0
 10
203.4752644981549
 20
-295.2781680799454
 30
0.0
 10
202.824855575522
 20
-296.2647735355475
 30
0.0
 10
202.824855575522
 20
-297.4136684392796
 30
0.0
  0
SPLINE
  5
62
330
4D
100
AcDbEntity
  8
Bottom
 62
     7
420
 16777215
370
     9
100
AcDbSpline
210
0.0
220
0.0
230
1.0
 70
    11
 71
     3
 72
    23
 73
    19
 74
     0
 42
0.0000000001
 43
0.0000000001
 12
1.0
 22
0.0
 32
0.0
 13
1.0
 23
0.0
 33
0.0
 40
0.0
 40
0.0
 40
0.0
 40
0.0
 40
1.0
 40
1.0
 40
1.0
 40
2.0
 40
2.0
 40
2.0
 40
3.0
 40
3.0
 40
3.0
 40
4.0
 40
4.0
 40
4.0
 40
5.0
 40
5.0
 40
5.0
 40
6.0
 40
6.0
 40
6.0
 40
6.0
 10
180.4715216501492
 20
-304.3814622297399
 30
0.0
 10
180.4715216501492
 20
-302.7171732151799
 30
0.0
 10
179.1223744361886
 20
-301.3680974943683
 30
0.0
 10
177.4581211682024
 20
-301.3680974943683
 30
0.0
 10
176.8722705590772
 20
-301.3680974943683
 30
0.0
 10
176.3300307708161
 20
-301.5423977915238
 30
0.0
 10
175.8673628573432
 20
-301.8316590722005
 30
0.0
 10
175.7341711208367
 20
-302.6622664767797
 30
0.0
 10
175.6625707321567
 20
-303.5133209219586
 30
0.0
 10
175.6625707321567
 20
-304.3814622297399
 30
0.0
 10
175.6625707321567
 20
-305.2496035375206
 30
0.0
 10
175.7341711208367
 20
-306.1006579826995
 30
0.0
 10
175.8673628573432
 20
-306.9312653872787
 30
0.0
 10
176.3300307708161
 20
-307.2205266679554
 30
0.0
 10
176.8722705590772
 20
-307.3948269651141
 30
0.0
 10
177.4581211682024
 20
-307.3948269651141
 30
0.0
 10
179.1223744361886
 20
-307.3948269651141
 30
0.0
 10
180.4715216501492
 20
-306.0457512443026
 30
0.0
 10
180.4715216501492
 20
-304.3814622297399
 30
0.0
  0
SPLINE
  5
63
330
4D
100
AcDbEntity
  8
Bottom
 62
     7
420
 16777215
370
     9
100
AcDbSpline
210
0.0
220
0.0
230
1.0
 70
    11
 71
     3
 72
    17
 73
    13
 74
     0
 42
0.0000000001
 43
0.0000000001
 12
1.0
 22
0.0
 32
0.0
 13
1.0
 23
0.0
 33
0.0
 40
0.0
 40
0.0
 40
0.0
 40
0.0
 40
1.0
 40
1.0
 40
1.0
 40
2.0
 40
2.0
 40
2.0
 40
3.0
 40
3.0
 40
3.0
 40
4.0
 40
4.0
 40
4.0
 40
4.0
 10
184.5531727638063
 20
-301.3680974943683
 30
0.0
 10
182.8889194958196
 20
-301.3680974943683
 30
0.0
 10
181.5397722818589
 20
-302.7171732151799
 30
0.0
 10
181.5397722818589
 20
-304.3814622297399
 30
0.0
 10
181.5397722818589
 20
-306.0457512443026
 30
0.0
 10
182.8889194958196
 20
-307.3948269651141
 30
0.0
 10
184.5531727638063
 20
-307.3948269651141
 30
0.0
 10
186.2174260317925
 20
-307.3948269651141
 30
0.0
 10
187.5665732457532
 20
-306.0457512443026
 30
0.0
 10
187.5665732457532
 20
-304.3814622297399
 30
0.0
 10
187.5665732457532
 20
-302.7171732151799
 30
0.0
 10
186.2174260317925
 20
-301.3680974943683
 30
0.0
 10
184.5531727638063
 20
-301.3680974943683
 30
0.0
  0
SPLINE
  5
64
330
4D
100
AcDbEntity
  8
Bottom
 62
     7
420
 16777215
370
     9
100
AcDbSpline
210
0.0
220
0.0
230
1.0
 70
    11
 71
     3
 72
    17
 73
    13
 74
     0
 42
0.0000000001
 43
0.0000000001
 12
1.0
 22
0.0
 32
0.0
 13
1.0
 23
0.0
 33
0.0
 40
0.0
 40
0.0
 40
0.0
 40
0.0
 40
1.0
 40
1.0
 40
1.0
 40
2.0
 40
2.0
 40
2.0
 40
3.0
 40
3.0
 40
3.0
 40
4.0
 40
4.0
 40
4.0
 40
4.0
 10
191.648188612835
 20
-301.3680974943683
 30
0.0
 10
189.9839353448489
 20
-301.3680974943683
 30
0.0
 10
188.6348238774628
 20
-302.7171732151799
 30
0.0
 10
188.6348238774628
 20
-304.3814622297399
 30
0.0
 10
188.6348238774628
 20
-306.0457512443026
 30
0.0
 10
189.9839353448489
 20
-307.3948269651141
 30
0.0
 10
191.648188612835
 20
-307.3948269651141
 30
0.0
 10
193.3124418808224
 20
-307.3948269651141
 30
0.0
 10
194.6615890947825
 20
-306.0457512443026
 30
0.0
 10
194.6615890947825
 20
-304.3814622297399
 30
0.0
 10
194.6615890947825
 20
-302.7171732151799
 30
0.0
 10
193.3124418808224
 20
-301.3680974943683
 30
0.0
 10
191.648188612835
 20
-301.3680974943683
 30
0.0
  0
SPLINE
  5
65
330
4D
100
AcDbEntity
  8
Bottom
 62
     7
420
 16777215
370
     9
100
AcDbSpline
210
0.0
220
0.0
230
1.0
 70
    11
 71
     3
 72
    17
 73
    13
 74
     0
 42
0.0000000001
 43
0.0000000001
 12
1.0
 22
0.0
 32
0.0
 13
1.0
 23
0.0
 33
0.0
 40
0.0
 40
0.0
 40
0.0
 40
0.0
 40
1.0
 40
1.0
 40
1.0
 40
2.0
 40
2.0
 40
2.0
 40
3.0
 40
3.0
 40
3.0
 40
4.0
 40
4.0
 40
4.0
 40
4.0
 10
198.7432402084389
 20
-301.3680974943683
 30
0.0
 10
197.0789869404528
 20
-301.3680974943683
 30
0.0
 10
195.7298397264921
 20
-302.7171732151799
 30
0.0
 10
195.7298397264921
 20
-304.3814622297399
 30
0.0
 10
195.7298397264921
 20
-306.0457512443026
 30
0.0
 10
197.0789869404528
 20
-307.3948269651141
 30
0.0
 10
198.7432402084389
 20
-307.3948269651141
 30
0.0
 10
200.4074934764263
 20
-307.3948269651141
 30
0.0
 10
201.7566406903864
 20
-306.0457512443026
 30
0.0
 10
201.7566406903864
 20
-304.3814622297399
 30
0.0
 10
201.7566406903864
 20
-302.7171732151799
 30
0.0
 10
200.4074934764263
 20
-301.3680974943683
 30
0.0
 10
198.7432402084389
 20
-301.3680974943683
 30
0.0
  0
SPLINE
  5
66
330
4D
100
AcDbEntity
  8
Bottom
 62
     7
420
 16777215
370
     9
100
AcDbSpline
210
0.0
220
0.0
230
1.0
 70
    11
 71
     3
 72
    23
 73
    19
 74
     0
 42
0.0000000001
 43
0.0000000001
 12
1.0
 22
0.0
 32
0.0
 13
1.0
 23
0.0
 33
0.0
 40
0.0
 40
0.0
 40
0.0
 40
0.0
 40
1.0
 40
1.0
 40
1.0
 40
2.0
 40
2.0
 40
2.0
 40
3.0
 40
3.0
 40
3.0
 40
4.0
 40
4.0
 40
4.0
 40
5.0
 40
5.0
 40
5.0
 40
6.0
 40
6.0
 40
6.0
 40
6.0
 10
202.824855575522
 20
-304.3814622297399
 30
0.0
 10
202.824855575522
 20
-306.0457512443026
 30
0.0
 10
204.1740027894821
 20
-307.3948269651141
 30
0.0
 10
205.8382560574689
 20
-307.3948269651141
 30
0.0
 10
206.4241424131681
 20
-307.3948269651141
 30
0.0
 10
206.9663822014298
 20
-307.2205266679554
 30
0.0
 10
207.4290501149021
 20
-306.9312653872787
 30
0.0
 10
207.5622418514085
 20
-306.1006579826995
 30
0.0
 10
207.6338422400885
 20
-305.2496035375206
 30
0.0
 10
207.6338422400885
 20
-304.3814622297399
 30
0.0
 10
207.6338422400885
 20
-303.5133209219586
 30
0.0
 10
207.5622418514085
 20
-302.6622664767797
 30
0.0
 10
207.4290501149021
 20
-301.8316590722005
 30
0.0
 10
206.9663822014298
 20
-301.5423977915238
 30
0.0
 10
206.4241424131681
 20
-301.3680974943683
 30
0.0
 10
205.8382560574689
 20
-301.3680974943683
 30
0.0
 10
204.1740027894821
 20
-301.3680974943683
 30
0.0
 10
202.824855575522
 20
-302.7171732151799
 30
0.0
 10
202.824855575522
 20
-304.3814622297399
 30
0.0
  0
SPLINE
  5
67
330
4D
100
AcDbEntity
  8
Bottom
 62
     7
420
 16777215
370
     9
100
AcDbSpline
210
0.0
220
0.0
230
1.0
 70
    11
 71
     3
 72
    17
 73
    13
 74
     0
 42
0.0000000001
 43
0.0000000001
 12
1.0
 22
0.0
 32
0.0
 13
1.0
 23
0.0
 33
0.0
 40
0.0
 40
0.0
 40
0.0
 40
0.0
 40
1.0
 40
1.0
 40
1.0
 40
2.0
 40
2.0
 40
2.0
 40
3.0
 40
3.0
 40
3.0
 40
4.0
 40
4.0
 40
4.0
 40
4.0
 10
180.4715216501492
 20
-311.3492560202028
 30
0.0
 10
180.4715216501492
 20
-309.6849670056401
 30
0.0
 10
179.1223744361886
 20
-308.3358197916781
 30
0.0
 10
177.4581211682024
 20
-308.3358197916781
 30
0.0
 10
177.0196536856516
 20
-308.3358197916781
 30
0.0
 10
176.6058513394902
 20
-308.4341943646453
 30
0.0
 10
176.2300476020002
 20
-308.6025607304385
 30
0.0
 10
176.7696778903243
 20
-310.5779879292566
 30
0.0
 10
177.6758535533496
 20
-312.4016351728433
 30
0.0
 10
178.8754370996928
 20
-313.9931441617672
 30
0.0
 10
179.8211127275164
 20
-313.484756379537
 30
0.0
 10
180.4715216501492
 20
-312.4981509239317
 30
0.0
 10
180.4715216501492
 20
-311.3492560202028
 30
0.0
  0
SPLINE
  5
68
330
4D
100
AcDbEntity
  8
Bottom
 62
     7
420
 16777215
370
     9
100
AcDbSpline
210
0.0
220
0.0
230
1.0
 70
    11
 71
     3
 72
    17
 73
    13
 74
     0
 42
0.0000000001
 43
0.0000000001
 12
1.0
 22
0.0
 32
0.0
 13
1.0
 23
0.0
 33
0.0
 40
0.0
 40
0.0
 40
0.0
 40
0.0
 40
1.0
 40
1.0
 40
1.0
 40
2.0
 40
2.0
 40
2.0
 40
3.0
 40
3.0
 40
3.0
 40
4.0
 40
4.0
 40
4.0
 40
4.0
 10
184.5531727638063
 20
-308.3358197916781
 30
0.0
 10
182.8889194958196
 20
-308.3358197916781
 30
0.0
 10
181.5397722818589
 20
-309.6849670056401
 30
0.0
 10
181.5397722818589
 20
-311.3492560202028
 30
0.0
 10
181.5397722818589
 20
-313.0134735416117
 30
0.0
 10
182.8889194958196
 20
-314.3626207555744
 30
0.0
 10
184.5531727638063
 20
-314.3626207555744
 30
0.0
 10
186.2174260317925
 20
-314.3626207555744
 30
0.0
 10
187.5665732457532
 20
-313.0134735416117
 30
0.0
 10
187.5665732457532
 20
-311.3492560202028
 30
0.0
 10
187.5665732457532
 20
-309.6849670056401
 30
0.0
 10
186.2174260317925
 20
-308.3358197916781
 30
0.0
 10
184.5531727638063
 20
-308.3358197916781
 30
0.0
  0
SPLINE
  5
69
330
4D
100
AcDbEntity
  8
Bottom
 62
     7
420
 16777215
370
     9
100
AcDbSpline
210
0.0
220
0.0
230
1.0
 70
    11
 71
     3
 72
    17
 73
    13
 74
     0
 42
0.0000000001
 43
0.0000000001
 12
1.0
 22
0.0
 32
0.0
 13
1.0
 23
0.0
 33
0.0
 40
0.0
 40
0.0
 40
0.0
 40
0.0
 40
1.0
 40
1.0
 40
1.0
 40
2.0
 40
2.0
 40
2.0
 40
3.0
 40
3.0
 40
3.0
 40
4.0
 40
4.0
 40
4.0
 40
4.0
 10
191.648188612835
 20
-308.3358197916781
 30
0.0
 10
189.9839353448489
 20
-308.3358197916781
 30
0.0
 10
188.6348238774628
 20
-309.6849670056401
 30
0.0
 10
188.6348238774628
 20
-311.3492560202028
 30
0.0
 10
188.6348238774628
 20
-313.0134735416117
 30
0.0
 10
189.9839353448489
 20
-314.3626207555744
 30
0.0
 10
191.648188612835
 20
-314.3626207555744
 30
0.0
 10
193.3124418808224
 20
-314.3626207555744
 30
0.0
 10
194.6615890947825
 20
-313.0134735416117
 30
0.0
 10
194.6615890947825
 20
-311.3492560202028
 30
0.0
 10
194.6615890947825
 20
-309.6849670056401
 30
0.0
 10
193.3124418808224
 20
-308.3358197916781
 30
0.0
 10
191.648188612835
 20
-308.3358197916781
 30
0.0
  0
SPLINE
  5
6A
330
4D
100
AcDbEntity
  8
Bottom
 62
     7
420
 16777215
370
     9
100
AcDbSpline
210
0.0
220
0.0
230
1.0
 70
    11
 71
     3
 72
    17
 73
    13
 74
     0
 42
0.0000000001
 43
0.0000000001
 12
1.0
 22
0.0
 32
0.0
 13
1.0
 23
0.0
 33
0.0
 40
0.0
 40
0.0
 40
0.0
 40
0.0
 40
1.0
 40
1.0
 40
1.0
 40
2.0
 40
2.0
 40
2.0
 40
3.0
 40
3.0
 40
3.0
 40
4.0
 40
4.0
 40
4.0
 40
4.0
 10
198.7432402084389
 20
-308.3358197916781
 30
0.0
 10
197.0789869404528
 20
-308.3358197916781
 30
0.0
 10
195.7298397264921
 20
-309.6849670056401
 30
0.0
 10
195.7298397264921
 20
-311.3492560202028
 30
0.0
 10
195.7298397264921
 20
-313.0134735416117
 30
0.0
 10
197.0789869404528
 20
-314.3626207555744
 30
0.0
 10
198.7432402084389
 20
-314.3626207555744
 30
0.0
 10
200.4074934764263
 20
-314.3626207555744
 30
0.0
 10
201.7566406903864
 20
-313.0134735416117
 30
0.0
 10
201.7566406903864
 20
-311.3492560202028
 30
0.0
 10
201.7566406903864
 20
-309.6849670056401
 30
0.0
 10
200.4074934764263
 20
-308.3358197916781
 30
0.0
 10
198.7432402084389
 20
-308.3358197916781
 30
0.0
  0
SPLINE
  5
6B
330
4D
100
AcDbEntity
  8
Bottom
 62
     7
420
 16777215
370
     9
100
AcDbSpline
210
0.0
220
0.0
230
1.0
 70
    11
 71
     3
 72
    17
 73
    13
 74
     0
 42
0.0000000001
 43
0.0000000001
 12
1.0
 22
0.0
 32
0.0
 13
1.0
 23
0.0
 33
0.0
 40
0.0
 40
0.0
 40
0.0
 40
0.0
 40
1.0
 40
1.0
 40
1.0
 40
2.0
 40
2.0
 40
2.0
 40
3.0
 40
3.0
 40
3.0
 40
4.0
 40
4.0
 40
4.0
 40
4.0
 10
202.824855575522
 20
-311.3492560202028
 30
0.0
 10
202.824855575522
 20
-312.4981509239317
 30
0.0
 10
203.4752287515796
 20
-313.484756379537
 30
0.0
 10
204.4209401259785
 20
-313.9932156549145
 30
0.0
 10
205.6205236723217
 20
-312.4016351728433
 30
0.0
 10
206.526735081921
 20
-310.5779879292566
 30
0.0
 10
207.0663653702451
 20
-308.6026322235858
 30
0.0
 10
206.6905258861804
 20
-308.4341943646453
 30
0.0
 10
206.2767235400196
 20
-308.3358197916781
 30
0.0
 10
205.8382560574689
 20
-308.3358197916781
 30
0.0
 10
204.1740027894821
 20
-308.3358197916781
 30
0.0
 10
202.824855575522
 20
-309.6849670056401
 30
0.0
 10
202.824855575522
 20
-311.3492560202028
 30
0.0
  0
SPLINE
  5
6C
330
4D
100
AcDbEntity
  8
Bottom
 62
     7
420
 16777215
370
     9
100
AcDbSpline
210
0.0
220
0.0
230
1.0
 70
    11
 71
     3
 72
    17
 73
    13
 74
     0
 42
0.0000000001
 43
0.0000000001
 12
1.0
 22
0.0
 32
0.0
 13
1.0
 23
0.0
 33
0.0
 40
0.0
 40
0.0
 40
0.0
 40
0.0
 40
1.0
 40
1.0
 40
1.0
 40
2.0
 40
2.0
 40
2.0
 40
3.0
 40
3.0
 40
3.0
 40
4.0
 40
4.0
 40
4.0
 40
4.0
 10
184.5531727638063
 20
-315.3035420889906
 30
0.0
 10
183.3602738268902
 20
-315.3035420889906
 30
0.0
 10
182.3387797145982
 20
-316.0024591131914
 30
0.0
 10
181.8504457606496
 20
-317.0079387601165
 30
0.0
 10
183.4245461678022
 20
-318.231186538764
 30
0.0
 10
185.232464918617
 20
-319.1656019956282
 30
0.0
 10
187.1970966519454
 20
-319.7342585024284
 30
0.0
 10
187.4251597971169
 20
-319.3100181565196
 30
0.0
 10
187.5665732457532
 20
-318.8323009351927
 30
0.0
 10
187.5665732457532
 20
-318.316978317512
 30
0.0
 10
187.5665732457532
 20
-316.6527607960998
 30
0.0
 10
186.2174260317925
 20
-315.3035420889906
 30
0.0
 10
184.5531727638063
 20
-315.3035420889906
 30
0.0
  0
SPLINE
  5
6D
330
4D
100
AcDbEntity
  8
Bottom
 62
     7
420
 16777215
370
     9
100
AcDbSpline
210
0.0
220
0.0
230
1.0
 70
    11
 71
     3
 72
    23
 73
    19
 74
     0
 42
0.0000000001
 43
0.0000000001
 12
1.0
 22
0.0
 32
0.0
 13
1.0
 23
0.0
 33
0.0
 40
0.0
 40
0.0
 40
0.0
 40
0.0
 40
1.0
 40
1.0
 40
1.0
 40
2.0
 40
2.0
 40
2.0
 40
3.0
 40
3.0
 40
3.0
 40
4.0
 40
4.0
 40
4.0
 40
5.0
 40
5.0
 40
5.0
 40
6.0
 40
6.0
 40
6.0
 40
6.0
 10
191.648188612835
 20
-315.3035420889906
 30
0.0
 10
189.9839353448489
 20
-315.3035420889906
 30
0.0
 10
188.6348238774628
 20
-316.6527607960998
 30
0.0
 10
188.6348238774628
 20
-318.316978317512
 30
0.0
 10
188.6348238774628
 20
-319.0311948755909
 30
0.0
 10
188.8936290766863
 20
-319.6784938462449
 30
0.0
 10
189.3088255392514
 20
-320.1949603543039
 30
0.0
 10
190.0726225961294
 20
-320.3069901187225
 30
0.0
 10
190.8533277827355
 20
-320.3671158569915
 30
0.0
 10
191.6482243594102
 20
-320.3671158569915
 30
0.0
 10
192.4431209360837
 20
-320.3671158569915
 30
0.0
 10
193.2237903761159
 20
-320.3069901187225
 30
0.0
 10
193.9875516864192
 20
-320.1949603543039
 30
0.0
 10
194.402748148985
 20
-319.6784938462449
 30
0.0
 10
194.6615890947825
 20
-319.0311948755909
 30
0.0
 10
194.6615890947825
 20
-318.316978317512
 30
0.0
 10
194.6615890947825
 20
-316.6527607960998
 30
0.0
 10
193.3124418808224
 20
-315.3035420889906
 30
0.0
 10
191.648188612835
 20
-315.3035420889906
 30
0.0
  0
SPLINE
  5
6E
330
4D
100
AcDbEntity
  8
Bottom
 62
     7
420
 16777215
370
     9
100
AcDbSpline
210
0.0
220
0.0
230
1.0
 70
    11
 71
     3
 72
    17
 73
    13
 74
     0
 42
0.0000000001
 43
0.0000000001
 12
1.0
 22
0.0
 32
0.0
 13
1.0
 23
0.0
 33
0.0
 40
0.0
 40
0.0
 40
0.0
 40
0.0
 40
1.0
 40
1.0
 40
1.0
 40
2.0
 40
2.0
 40
2.0
 40
3.0
 40
3.0
 40
3.0
 40
4.0
 40
4.0
 40
4.0
 40
4.0
 10
198.7432402084389
 20
-315.3035420889906
 30
0.0
 10
197.0789869404528
 20
-315.3035420889906
 30
0.0
 10
195.7298397264921
 20
-316.6527607960998
 30
0.0
 10
195.7298397264921
 20
-318.316978317512
 30
0.0
 10
195.7298397264921
 20
-318.8323009351927
 30
0.0
 10
195.8712531751284
 20
-319.3100896496707
 30
0.0
 10
196.0993163203005
 20
-319.7343299955795
 30
0.0
 10
198.0639480536283
 20
-319.1656734887748
 30
0.0
 10
199.871866804443
 20
-318.231186538764
 30
0.0
 10
201.4459672115957
 20
-317.0079387601165
 30
0.0
 10
200.9576332576471
 20
-316.0024591131914
 30
0.0
 10
199.9361391453551
 20
-315.3035420889906
 30
0.0
 10
198.7432402084389
 20
-315.3035420889906
 30
0.0
  0
ENDBLK
  5
50
330
4D
100
AcDbEntity
  8
0
100
AcDbBlockEnd
  0
ENDSEC
  0
SECTION
  2
ENTITIES
  0
SPLINE
  5
41
330
1F
100
AcDbEntity
  8
Top
 62
     7
420
 16777215
370
     9
100
AcDbSpline
210
0.0
220
0.0
230
1.0
 70
    11
 71
     3
 72
    65
 73
    61
 74
     0
 42
0.0000000001
 43
0.0000000001
 12
1.0
 22
0.0
 32
0.0
 13
1.0
 23
0.0
 33
0.0
 40
0.0
 40
0.0
 40
0.0
 40
0.0
 40
1.0
 40
1.0
 40
1.0
 40
2.0
 40
2.0
 40
2.0
 40
3.0
 40
3.0
 40
3.0
 40
4.0
 40
4.0
 40
4.0
 40
5.0
 40
5.0
 40
5.0
 40
6.0
 40
6.0
 40
6.0
 40
7.0
 40
7.0
 40
7.0
 40
8.0
 40
8.0
 40
8.0
 40
9.0
 40
9.0
 40
9.0
 40
10.0
 40
10.0
 40
10.0
 40
11.0
 40
11.0
 40
11.0
 40
12.0
 40
12.0
 40
12.0
 40
13.0
 40
13.0
 40
13.0
 40
14.0
 40
14.0
 40
14.0
 40
15.0
 40
15.0
 40
15.0
 40
16.0
 40
16.0
 40
16.0
 40
17.0
 40
17.0
 40
17.0
 40
18.0
 40
18.0
 40
18.0
 40
19.0
 40
19.0
 40
19.0
 40
20.0
 40
20.0
 40
20.0
 40
20.0
 10
123.074292130961
 20
-297.365569994018
 30
0.0
 10
121.4746481697724
 20
-297.365569994018
 30
0.0
 10
120.0192460501818
 20
-297.9685478313239
 30
0.0
 10
118.9102698134799
 20
-298.9531561210082
 30
0.0
 10
116.7850765360164
 20
-281.6558269220448
 30
0.0
 10
103.0679336290182
 20
-267.9460694384931
 30
0.0
 10
85.76750384411802
 20
-265.831642084421
 30
0.0
 10
86.75807645536126
 20
-264.7213093413718
 30
0.0
 10
87.3652099390962
 20
-263.2615577887311
 30
0.0
 10
87.3652099390962
 20
-261.6564878021532
 30
0.0
 10
87.3652099390962
 20
-258.1875134988212
 30
0.0
 10
84.5530430900271
 20
-255.3753681815989
 30
0.0
 10
81.08409031854191
 20
-255.3753681815989
 30
0.0
 10
77.61511601520994
 20
-255.3753681815989
 30
0.0
 10
74.80297069798763
 20
-258.1875134988212
 30
0.0
 10
74.80297069798763
 20
-261.6564878021532
 30
0.0
 10
74.80297069798763
 20
-263.2630650180059
 30
0.0
 10
75.41126690144884
 20
-264.7240223540664
 30
0.0
 10
76.40349746489436
 20
-265.8347426703577
 30
0.0
 10
59.10709413534259
 20
-267.9603235210633
 30
0.0
 10
45.39817639381539
 20
-281.6767343452709
 30
0.0
 10
43.28329687096086
 20
-298.9762382607594
 30
0.0
 10
42.171241580169
 20
-297.9780218439083
 30
0.0
 10
40.70587021551798
 20
-297.365569994018
 30
0.0
 10
39.09388850612279
 20
-297.365569994018
 30
0.0
 10
35.62491420279115
 20
-297.365569994018
 30
0.0
 10
32.81276888556883
 20
-300.1777153112403
 30
0.0
 10
32.81276888556883
 20
-303.6466896145723
 30
0.0
 10
32.81276888556883
 20
-307.1156423860575
 30
0.0
 10
35.62491420279115
 20
-309.9277877032798
 30
0.0
 10
39.09388850612279
 20
-309.9277877032798
 30
0.0
 10
40.70587021551798
 20
-309.9277877032798
 30
0.0
 10
42.171241580169
 20
-309.3153358533895
 30
0.0
 10
43.28329687096086
 20
-308.3171194365383
 30
0.0
 10
45.39815486196861
 20
-325.6166233520269
 30
0.0
 10
59.10711566718969
 20
-339.3330126443877
 30
0.0
 10
76.40349746489436
 20
-341.4586365587868
 30
0.0
 10
75.41126690144884
 20
-342.5693353432314
 30
0.0
 10
74.80297069798763
 20
-344.0303142111387
 30
0.0
 10
74.80297069798763
 20
-345.6368914269914
 30
0.0
 10
74.80297069798763
 20
-349.1058441984766
 30
0.0
 10
77.61511601520994
 20
-351.9180110475457
 30
0.0
 10
81.08409031854191
 20
-351.9180110475457
 30
0.0
 10
84.5530430900271
 20
-351.9180110475457
 30
0.0
 10
87.3652099390962
 20
-349.1058441984766
 30
0.0
 10
87.3652099390962
 20
-345.6368914269914
 30
0.0
 10
87.3652099390962
 20
-344.0317353130264
 30
0.0
 10
86.7580333916677
 20
-342.5718976329985
 30
0.0
 10
85.76735312119054
 20
-341.4615433581025
 30
0.0
 10
103.0680843519457
 20
-339.3472236632643
 30
0.0
 10
116.7848827493954
 20
-325.6371862657044
 30
0.0
 10
118.9101190905524
 20
-308.3400723852088
 30
0.0
 10
120.0191168591011
 20
-309.3247668022804
 30
0.0
 10
121.4745835742321
 20
-309.9277877032798
 30
0.0
 10
123.074292130961
 20
-309.9277877032798
 30
0.0
 10
126.543266434293
 20
-309.9277877032798
 30
0.0
 10
129.3554117515153
 20
-307.1156423860575
 30
0.0
 10
129.3554117515153
 20
-303.6466896145723
 30
0.0
 10
129.3554117515153
 20
-300.1777153112403
 30
0.0
 10
126.543266434293
 20
-297.365569994018
 30
0.0
 10
123.074292130961
 20
-297.365569994018
 30
0.0
  0
SPLINE
  5
42
330
1F
100
AcDbEntity
  8
Top
 62
     7
420
 16777215
370
     9
100
AcDbSpline
210
0.0
220
0.0
230
1.0
 70
    11
 71
     3
 72
    17
 73
    13
 74
     0
 42
0.0000000001
 43
0.0000000001
 12
1.0
 22
0.0
 32
0.0
 13
1.0
 23
0.0
 33
0.0
 40
0.0
 40
0.0
 40
0.0
 40
0.0
 40
1.0
 40
1.0
 40
1.0
 40
2.0
 40
2.0
 40
2.0
 40
3.0
 40
3.0
 40
3.0
 40
4.0
 40
4.0
 40
4.0
 40
4.0
 10
43.0626353453609
 20
-303.6466879582765
 30
0.0
 10
43.0626353453609
 20
-305.8385680584969
 30
0.0
 10
41.28576544657382
 20
-307.6154379572843
 30
0.0
 10
39.09388534635309
 20
-307.6154379572843
 30
0.0
 10
36.90200524613268
 20
-307.6154379572843
 30
0.0
 10
35.12513534734528
 20
-305.8385680584969
 30
0.0
 10
35.12513534734528
 20
-303.6466879582765
 30
0.0
 10
35.12513534734528
 20
-301.4548078580557
 30
0.0
 10
36.90200524613268
 20
-299.6779379592687
 30
0.0
 10
39.09388534635309
 20
-299.6779379592687
 30
0.0
 10
41.28576544657382
 20
-299.6779379592687
 30
0.0
 10
43.0626353453609
 20
-301.4548078580557
 30
0.0
 10
43.0626353453609
 20
-303.6466879582765
 30
0.0
  0
SPLINE
  5
43
330
1F
100
AcDbEntity
  8
Top
 62
     7
420
 16777215
370
     9
100
AcDbSpline
210
0.0
220
0.0
230
1.0
 70
    11
 71
     3
 72
    17
 73
    13
 74
     0
 42
0.0000000001
 43
0.0000000001
 12
1.0
 22
0.0
 32
0.0
 13
1.0
 23
0.0
 33
0.0
 40
0.0
 40
0.0
 40
0.0
 40
0.0
 40
1.0
 40
1.0
 40
1.0
 40
2.0
 40
2.0
 40
2.0
 40
3.0
 40
3.0
 40
3.0
 40
4.0
 40
4.0
 40
4.0
 40
4.0
 10
127.0430418570549
 20
-303.6466879582765
 30
0.0
 10
127.0430418570549
 20
-305.8385680584969
 30
0.0
 10
125.2661719582675
 20
-307.6154379572843
 30
0.0
 10
123.0742918580471
 20
-307.6154379572843
 30
0.0
 10
120.8824117578267
 20
-307.6154379572843
 30
0.0
 10
119.1055418590393
 20
-305.8385680584969
 30
0.0
 10
119.1055418590393
 20
-303.6466879582765
 30
0.0
 10
119.1055418590393
 20
-301.4548078580557
 30
0.0
 10
120.8824117578267
 20
-299.6779379592687
 30
0.0
 10
123.0742918580471
 20
-299.6779379592687
 30
0.0
 10
125.2661719582675
 20
-299.6779379592687
 30
0.0
 10
127.0430418570549
 20
-301.4548078580557
 30
0.0
 10
127.0430418570549
 20
-303.6466879582765
 30
0.0
  0
SPLINE
  5
44
330
1F
100
AcDbEntity
  8
Top
 62
     7
420
 16777215
370
     9
100
AcDbSpline
210
0.0
220
0.0
230
1.0
 70
    11
 71
     3
 72
    17
 73
    13
 74
     0
 42
0.0000000001
 43
0.0000000001
 12
1.0
 22
0.0
 32
0.0
 13
1.0
 23
0.0
 33
0.0
 40
0.0
 40
0.0
 40
0.0
 40
0.0
 40
1.0
 40
1.0
 40
1.0
 40
2.0
 40
2.0
 40
2.0
 40
3.0
 40
3.0
 40
3.0
 40
4.0
 40
4.0
 40
4.0
 40
4.0
 10
81.08408860220008
 20
-265.6252347014373
 30
0.0
 10
78.89220850197968
 20
-265.6252347014373
 30
0.0
 10
77.11533860319227
 20
-263.8483648026502
 30
0.0
 10
77.11533860319227
 20
-261.6564847024295
 30
0.0
 10
77.11533860319227
 20
-259.4646046022091
 30
0.0
 10
78.89220850197968
 20
-257.6877347034217
 30
0.0
 10
81.08408860220008
 20
-257.6877347034217
 30
0.0
 10
83.27596870242081
 20
-257.6877347034217
 30
0.0
 10
85.0528386012079
 20
-259.4646046022091
 30
0.0
 10
85.0528386012079
 20
-261.6564847024295
 30
0.0
 10
85.0528386012079
 20
-263.8483648026502
 30
0.0
 10
83.27596870242081
 20
-265.6252347014373
 30
0.0
 10
81.08408860220008
 20
-265.6252347014373
 30
0.0
  0
SPLINE
  5
45
330
1F
100
AcDbEntity
  8
Top
 62
     7
420
 16777215
370
     9
100
AcDbSpline
210
0.0
220
0.0
230
1.0
 70
    11
 71
     3
 72
    17
 73
    13
 74
     0
 42
0.0000000001
 43
0.0000000001
 12
1.0
 22
0.0
 32
0.0
 13
1.0
 23
0.0
 33
0.0
 40
0.0
 40
0.0
 40
0.0
 40
0.0
 40
1.0
 40
1.0
 40
1.0
 40
2.0
 40
2.0
 40
2.0
 40
3.0
 40
3.0
 40
3.0
 40
4.0
 40
4.0
 40
4.0
 40
4.0
 10
81.08408860220008
 20
-349.605641213131
 30
0.0
 10
78.89220850197968
 20
-349.605641213131
 30
0.0
 10
77.11533860319227
 20
-347.8287713143442
 30
0.0
 10
77.11533860319227
 20
-345.6368912141231
 30
0.0
 10
77.11533860319227
 20
-343.4450111139034
 30
0.0
 10
78.89220850197968
 20
-341.6681412151153
 30
0.0
 10
81.08408860220008
 20
-341.6681412151153
 30
0.0
 10
83.27596870242081
 20
-341.6681412151153
 30
0.0
 10
85.0528386012079
 20
-343.4450111139034
 30
0.0
 10
85.0528386012079
 20
-345.6368912141231
 30
0.0
 10
85.0528386012079
 20
-347.8287713143442
 30
0.0
 10
83.27596870242081
 20
-349.605641213131
 30
0.0
 10
81.08408860220008
 20
-349.605641213131
 30
0.0
  0
SPLINE
  5
46
330
1F
100
AcDbEntity
  8
Top
 62
     7
420
 16777215
370
     9
100
AcDbSpline
210
0.0
220
0.0
230
1.0
 70
    11
 71
     3
 72
    17
 73
    13
 74
     0
 42
0.0000000001
 43
0.0000000001
 12
1.0
 22
0.0
 32
0.0
 13
1.0
 23
0.0
 33
0.0
 40
0.0
 40
0.0
 40
0.0
 40
0.0
 40
1.0
 40
1.0
 40
1.0
 40
2.0
 40
2.0
 40
2.0
 40
3.0
 40
3.0
 40
3.0
 40
4.0
 40
4.0
 40
4.0
 40
4.0
 10
113.1257412347613
 20
-303.6466879582765
 30
0.0
 10
113.1257412347613
 20
-321.3350195357497
 30
0.0
 10
98.78651531788276
 20
-335.6742454526286
 30
0.0
 10
81.09818374040917
 20
-335.6742454526286
 30
0.0
 10
63.40985216293591
 20
-335.6742454526286
 30
0.0
 10
49.07062624605708
 20
-321.3350195357497
 30
0.0
 10
49.07062624605708
 20
-303.6466879582765
 30
0.0
 10
49.07062624605708
 20
-285.9583563808029
 30
0.0
 10
63.40985216293591
 20
-271.6191304639244
 30
0.0
 10
81.09818374040917
 20
-271.6191304639244
 30
0.0
 10
98.78651531788276
 20
-271.6191304639244
 30
0.0
 10
113.1257412347613
 20
-285.9583563808029
 30
0.0
 10
113.1257412347613
 20
-303.6466879582765
 30
0.0
  0
SPLINE
  5
48
330
1F
100
AcDbEntity
  8
Bottom
 62
     7
420
 16777215
370
     9
100
AcDbSpline
210
0.0
220
0.0
230
1.0
 70
    11
 71
     3
 72
    65
 73
    61
 74
     0
 42
0.0000000001
 43
0.0000000001
 12
1.0
 22
0.0
 32
0.0
 13
1.0
 23
0.0
 33
0.0
 40
0.0
 40
0.0
 40
0.0
 40
0.0
 40
1.0
 40
1.0
 40
1.0
 40
2.0
 40
2.0
 40
2.0
 40
3.0
 40
3.0
 40
3.0
 40
4.0
 40
4.0
 40
4.0
 40
5.0
 40
5.0
 40
5.0
 40
6.0
 40
6.0
 40
6.0
 40
7.0
 40
7.0
 40
7.0
 40
8.0
 40
8.0
 40
8.0
 40
9.0
 40
9.0
 40
9.0
 40
10.0
 40
10.0
 40
10.0
 40
11.0
 40
11.0
 40
11.0
 40
12.0
 40
12.0
 40
12.0
 40
13.0
 40
13.0
 40
13.0
 40
14.0
 40
14.0
 40
14.0
 40
15.0
 40
15.0
 40
15.0
 40
16.0
 40
16.0
 40
16.0
 40
17.0
 40
17.0
 40
17.0
 40
18.0
 40
18.0
 40
18.0
 40
19.0
 40
19.0
 40
19.0
 40
20.0
 40
20.0
 40
20.0
 40
20.0
 10
233.6384082985417
 20
-298.1003426091843
 30
0.0
 10
232.0387643373531
 20
-298.1003426091843
 30
0.0
 10
230.5833622177625
 20
-298.7033204464915
 30
0.0
 10
229.4743859810606
 20
-299.6879287361759
 30
0.0
 10
227.3491927035971
 20
-282.3905995372112
 30
0.0
 10
213.6320497965989
 20
-268.6808420536607
 30
0.0
 10
196.3316200116987
 20
-266.5664146995886
 30
0.0
 10
197.322192622942
 20
-265.4560819565394
 30
0.0
 10
197.9293261066769
 20
-263.9963304038987
 30
0.0
 10
197.9293261066769
 20
-262.3912604173208
 30
0.0
 10
197.9293261066769
 20
-258.9222861139888
 30
0.0
 10
195.1171592576078
 20
-256.1101407967665
 30
0.0
 10
191.6482064861226
 20
-256.1101407967665
 30
0.0
 10
188.1792321827907
 20
-256.1101407967665
 30
0.0
 10
185.3670868655683
 20
-258.9222861139888
 30
0.0
 10
185.3670868655683
 20
-262.3912604173208
 30
0.0
 10
185.3670868655683
 20
-263.9978376331735
 30
0.0
 10
185.9753830690295
 20
-265.458794969234
 30
0.0
 10
186.9676136324751
 20
-266.5695152855254
 30
0.0
 10
169.6712103029233
 20
-268.695096136231
 30
0.0
 10
155.9622925613961
 20
-282.4115069604379
 30
0.0
 10
153.8474130385416
 20
-299.7110108759271
 30
0.0
 10
152.7353577477497
 20
-298.7127944590759
 30
0.0
 10
151.2699863830987
 20
-298.1003426091843
 30
0.0
 10
149.6580046737035
 20
-298.1003426091843
 30
0.0
 10
146.1890303703715
 20
-298.1003426091843
 30
0.0
 10
143.3768850531492
 20
-300.9124879264079
 30
0.0
 10
143.3768850531492
 20
-304.3814622297399
 30
0.0
 10
143.3768850531492
 20
-307.8504150012264
 30
0.0
 10
146.1890303703715
 20
-310.6625603184474
 30
0.0
 10
149.6580046737035
 20
-310.6625603184474
 30
0.0
 10
151.2699863830987
 20
-310.6625603184474
 30
0.0
 10
152.7353577477497
 20
-310.0501084685584
 30
0.0
 10
153.8474130385416
 20
-309.0518920517073
 30
0.0
 10
155.9622710295493
 20
-326.3513959671932
 30
0.0
 10
169.6712318347701
 20
-340.0677852595559
 30
0.0
 10
186.9676136324751
 20
-342.1934091739551
 30
0.0
 10
185.9753830690295
 20
-343.3041079583996
 30
0.0
 10
185.3670868655683
 20
-344.765086826305
 30
0.0
 10
185.3670868655683
 20
-346.371664042159
 30
0.0
 10
185.3670868655683
 20
-349.8406168136455
 30
0.0
 10
188.1792321827907
 20
-352.6527836627146
 30
0.0
 10
191.6482064861226
 20
-352.6527836627146
 30
0.0
 10
195.1171592576078
 20
-352.6527836627146
 30
0.0
 10
197.9293261066769
 20
-349.8406168136455
 30
0.0
 10
197.9293261066769
 20
-346.371664042159
 30
0.0
 10
197.9293261066769
 20
-344.7665079281953
 30
0.0
 10
197.3221495592484
 20
-343.3066702481655
 30
0.0
 10
196.3314692887712
 20
-342.1963159732695
 30
0.0
 10
213.6322005195264
 20
-340.0819962784307
 30
0.0
 10
227.3489989169761
 20
-326.3719588808714
 30
0.0
 10
229.4742352581331
 20
-309.0748450003771
 30
0.0
 10
230.5832330266818
 20
-310.0595394174467
 30
0.0
 10
232.0386997418128
 20
-310.6625603184474
 30
0.0
 10
233.6384082985417
 20
-310.6625603184474
 30
0.0
 10
237.1073826018737
 20
-310.6625603184474
 30
0.0
 10
239.919527919096
 20
-307.8504150012264
 30
0.0
 10
239.919527919096
 20
-304.3814622297399
 30
0.0
 10
239.919527919096
 20
-300.9124879264079
 30
0.0
 10
237.1073826018737
 20
-298.1003426091843
 30
0.0
 10
233.6384082985417
 20
-298.1003426091843
 30
0.0
  0
SPLINE
  5
49
330
1F
100
AcDbEntity
  8
Bottom
 62
     7
420
 16777215
370
     9
100
AcDbSpline
210
0.0
220
0.0
230
1.0
 70
    11
 71
     3
 72
    17
 73
    13
 74
     0
 42
0.0000000001
 43
0.0000000001
 12
1.0
 22
0.0
 32
0.0
 13
1.0
 23
0.0
 33
0.0
 40
0.0
 40
0.0
 40
0.0
 40
0.0
 40
1.0
 40
1.0
 40
1.0
 40
2.0
 40
2.0
 40
2.0
 40
3.0
 40
3.0
 40
3.0
 40
4.0
 40
4.0
 40
4.0
 40
4.0
 10
153.6267515129416
 20
-304.3814605734441
 30
0.0
 10
153.6267515129416
 20
-306.5733406736651
 30
0.0
 10
151.8498816141545
 20
-308.3502105724519
 30
0.0
 10
149.6580015139338
 20
-308.3502105724519
 30
0.0
 10
147.4661214137134
 20
-308.3502105724519
 30
0.0
 10
145.689251514926
 20
-306.5733406736651
 30
0.0
 10
145.689251514926
 20
-304.3814605734441
 30
0.0
 10
145.689251514926
 20
-302.1895804732237
 30
0.0
 10
147.4661214137134
 20
-300.4127105744363
 30
0.0
 10
149.6580015139338
 20
-300.4127105744363
 30
0.0
 10
151.8498816141545
 20
-300.4127105744363
 30
0.0
 10
153.6267515129416
 20
-302.1895804732237
 30
0.0
 10
153.6267515129416
 20
-304.3814605734441
 30
0.0
  0
SPLINE
  5
4A
330
1F
100
AcDbEntity
  8
Bottom
 62
     7
420
 16777215
370
     9
100
AcDbSpline
210
0.0
220
0.0
230
1.0
 70
    11
 71
     3
 72
    17
 73
    13
 74
     0
 42
0.0000000001
 43
0.0000000001
 12
1.0
 22
0.0
 32
0.0
 13
1.0
 23
0.0
 33
0.0
 40
0.0
 40
0.0
 40
0.0
 40
0.0
 40
1.0
 40
1.0
 40
1.0
 40
2.0
 40
2.0
 40
2.0
 40
3.0
 40
3.0
 40
3.0
 40
4.0
 40
4.0
 40
4.0
 40
4.0
 10
237.6071580246356
 20
-304.3814605734441
 30
0.0
 10
237.6071580246356
 20
-306.5733406736651
 30
0.0
 10
235.8302881258482
 20
-308.3502105724519
 30
0.0
 10
233.6384080256278
 20
-308.3502105724519
 30
0.0
 10
231.4465279254074
 20
-308.3502105724519
 30
0.0
 10
229.66965802662
 20
-306.5733406736651
 30
0.0
 10
229.66965802662
 20
-304.3814605734441
 30
0.0
 10
229.66965802662
 20
-302.1895804732237
 30
0.0
 10
231.4465279254074
 20
-300.4127105744363
 30
0.0
 10
233.6384080256278
 20
-300.4127105744363
 30
0.0
 10
235.8302881258482
 20
-300.4127105744363
 30
0.0
 10
237.6071580246356
 20
-302.1895804732237
 30
0.0
 10
237.6071580246356
 20
-304.3814605734441
 30
0.0
  0
SPLINE
  5
4B
330
1F
100
AcDbEntity
  8
Bottom
 62
     7
420
 16777215
370
     9
100
AcDbSpline
210
0.0
220
0.0
230
1.0
 70
    11
 71
     3
 72
    17
 73
    13
 74
     0
 42
0.0000000001
 43
0.0000000001
 12
1.0
 22
0.0
 32
0.0
 13
1.0
 23
0.0
 33
0.0
 40
0.0
 40
0.0
 40
0.0
 40
0.0
 40
1.0
 40
1.0
 40
1.0
 40
2.0
 40
2.0
 40
2.0
 40
3.0
 40
3.0
 40
3.0
 40
4.0
 40
4.0
 40
4.0
 40
4.0
 10
191.6482047697811
 20
-266.3600073166053
 30
0.0
 10
189.4563246695601
 20
-266.3600073166053
 30
0.0
 10
187.6794547707733
 20
-264.5831374178179
 30
0.0
 10
187.6794547707733
 20
-262.3912573175974
 30
0.0
 10
187.6794547707733
 20
-260.1993772173764
 30
0.0
 10
189.4563246695601
 20
-258.4225073185896
 30
0.0
 10
191.6482047697811
 20
-258.4225073185896
 30
0.0
 10
193.8400848700015
 20
-258.4225073185896
 30
0.0
 10
195.6169547687889
 20
-260.1993772173764
 30
0.0
 10
195.6169547687889
 20
-262.3912573175974
 30
0.0
 10
195.6169547687889
 20
-264.5831374178179
 30
0.0
 10
193.8400848700015
 20
-266.3600073166053
 30
0.0
 10
191.6482047697811
 20
-266.3600073166053
 30
0.0
  0
SPLINE
  5
4C
330
1F
100
AcDbEntity
  8
Bottom
 62
     7
420
 16777215
370
     9
100
AcDbSpline
210
0.0
220
0.0
230
1.0
 70
    11
 71
     3
 72
    17
 73
    13
 74
     0
 42
0.0000000001
 43
0.0000000001
 12
1.0
 22
0.0
 32
0.0
 13
1.0
 23
0.0
 33
0.0
 40
0.0
 40
0.0
 40
0.0
 40
0.0
 40
1.0
 40
1.0
 40
1.0
 40
2.0
 40
2.0
 40
2.0
 40
3.0
 40
3.0
 40
3.0
 40
4.0
 40
4.0
 40
4.0
 40
4.0
 10
191.6482047697811
 20
-350.3404138282967
 30
0.0
 10
189.4563246695601
 20
-350.3404138282967
 30
0.0
 10
187.6794547707733
 20
-348.5635439295131
 30
0.0
 10
187.6794547707733
 20
-346.3716638292889
 30
0.0
 10
187.6794547707733
 20
-344.1797837290716
 30
0.0
 10
189.4563246695601
 20
-342.402913830281
 30
0.0
 10
191.6482047697811
 20
-342.402913830281
 30
0.0
 10
193.8400848700015
 20
-342.402913830281
 30
0.0
 10
195.6169547687889
 20
-344.1797837290716
 30
0.0
 10
195.6169547687889
 20
-346.3716638292889
 30
0.0
 10
195.6169547687889
 20
-348.5635439295131
 30
0.0
 10
193.8400848700015
 20
-350.3404138282967
 30
0.0
 10
191.6482047697811
 20
-350.3404138282967
 30
0.0
  0
INSERT
  5
4E
330
1F
100
AcDbEntity
  8
Bottom
100
AcDbBlockReference
  2
block 2
 10
0.0
 20
0.0
 30
0.0
  0
SPLINE
  5
70
330
1F
100
AcDbEntity
  8
MidSection2x
 62
     7
420
 16777215
370
     9
100
AcDbSpline
210
0.0
220
0.0
230
1.0
 70
    11
 71
     3
 72
    65
 73
    61
 74
     0
 42
0.0000000001
 43
0.0000000001
 12
1.0
 22
0.0
 32
0.0
 13
1.0
 23
0.0
 33
0.0
 40
0.0
 40
0.0
 40
0.0
 40
0.0
 40
1.0
 40
1.0
 40
1.0
 40
2.0
 40
2.0
 40
2.0
 40
3.0
 40
3.0
 40
3.0
 40
4.0
 40
4.0
 40
4.0
 40
5.0
 40
5.0
 40
5.0
 40
6.0
 40
6.0
 40
6.0
 40
7.0
 40
7.0
 40
7.0
 40
8.0
 40
8.0
 40
8.0
 40
9.0
 40
9.0
 40
9.0
 40
10.0
 40
10.0
 40
10.0
 40
11.0
 40
11.0
 40
11.0
 40
12.0
 40
12.0
 40
12.0
 40
13.0
 40
13.0
 40
13.0
 40
14.0
 40
14.0
 40
14.0
 40
15.0
 40
15.0
 40
15.0
 40
16.0
 40
16.0
 40
16.0
 40
17.0
 40
17.0
 40
17.0
 40
18.0
 40
18.0
 40
18.0
 40
19.0
 40
19.0
 40
19.0
 40
20.0
 40
20.0
 40
20.0
 40
20.0
 10
345.8824173595136
 20
-299.3940405594373
 30
0.0
 10
344.282773398325
 20
-299.3940405594373
 30
0.0
 10
342.8273712787345
 20
-299.9970183967432
 30
0.0
 10
341.7183950420325
 20
-300.9816266864275
 30
0.0
 10
339.593201764569
 20
-283.6842974874641
 30
0.0
 10
325.8760588575708
 20
-269.9745400039124
 30
0.0
 10
308.5756290726707
 20
-267.8601126498403
 30
0.0
 10
309.5662016839139
 20
-266.749779906791
 30
0.0
 10
310.1733351676488
 20
-265.2900283541504
 30
0.0
 10
310.1733351676488
 20
-263.6849583675724
 30
0.0
 10
310.1733351676488
 20
-260.2159840642405
 30
0.0
 10
307.3611683185797
 20
-257.4038387470182
 30
0.0
 10
303.8922155470945
 20
-257.4038387470182
 30
0.0
 10
300.4232412437626
 20
-257.4038387470182
 30
0.0
 10
297.6110959265403
 20
-260.2159840642405
 30
0.0
 10
297.6110959265403
 20
-263.6849583675724
 30
0.0
 10
297.6110959265403
 20
-265.2915355834252
 30
0.0
 10
298.2193921300014
 20
-266.7524929194857
 30
0.0
 10
299.2116226934469
 20
-267.863213235777
 30
0.0
 10
281.9152193638952
 20
-269.9887940864826
 30
0.0
 10
268.206301622368
 20
-283.7052049106902
 30
0.0
 10
266.0914220995135
 20
-301.0047088261787
 30
0.0
 10
264.9793668087216
 20
-300.0064924093276
 30
0.0
 10
263.5139954440706
 20
-299.3940405594373
 30
0.0
 10
261.9020137346754
 20
-299.3940405594373
 30
0.0
 10
258.4330394313434
 20
-299.3940405594373
 30
0.0
 10
255.6208941141211
 20
-302.2061858766596
 30
0.0
 10
255.6208941141211
 20
-305.6751601799916
 30
0.0
 10
255.6208941141211
 20
-309.1441129514768
 30
0.0
 10
258.4330394313434
 20
-311.9562582686991
 30
0.0
 10
261.9020137346754
 20
-311.9562582686991
 30
0.0
 10
263.5139954440706
 20
-311.9562582686991
 30
0.0
 10
264.9793668087216
 20
-311.3438064188088
 30
0.0
 10
266.0914220995135
 20
-310.3455900019576
 30
0.0
 10
268.2062800905212
 20
-327.6450939174462
 30
0.0
 10
281.915240895742
 20
-341.361483209807
 30
0.0
 10
299.2116226934469
 20
-343.4871071242061
 30
0.0
 10
298.2193921300014
 20
-344.5978059086507
 30
0.0
 10
297.6110959265403
 20
-346.058784776558
 30
0.0
 10
297.6110959265403
 20
-347.6653619924107
 30
0.0
 10
297.6110959265403
 20
-351.1343147638959
 30
0.0
 10
300.4232412437626
 20
-353.9464816129663
 30
0.0
 10
303.8922155470945
 20
-353.9464816129663
 30
0.0
 10
307.3611683185797
 20
-353.9464816129663
 30
0.0
 10
310.1733351676488
 20
-351.1343147638959
 30
0.0
 10
310.1733351676488
 20
-347.6653619924107
 30
0.0
 10
310.1733351676488
 20
-346.0602058784457
 30
0.0
 10
309.5661586202203
 20
-344.6003681984178
 30
0.0
 10
308.5754783497432
 20
-343.4900139235218
 30
0.0
 10
325.8762095804983
 20
-341.3756942286836
 30
0.0
 10
339.593007977948
 20
-327.6656568311237
 30
0.0
 10
341.7182443191051
 20
-310.3685429506281
 30
0.0
 10
342.8272420876538
 20
-311.3532373676996
 30
0.0
 10
344.2827088027847
 20
-311.9562582686991
 30
0.0
 10
345.8824173595136
 20
-311.9562582686991
 30
0.0
 10
349.3513916628456
 20
-311.9562582686991
 30
0.0
 10
352.1635369800679
 20
-309.1441129514768
 30
0.0
 10
352.1635369800679
 20
-305.6751601799916
 30
0.0
 10
352.1635369800679
 20
-302.2061858766596
 30
0.0
 10
349.3513916628456
 20
-299.3940405594373
 30
0.0
 10
345.8824173595136
 20
-299.3940405594373
 30
0.0
  0
SPLINE
  5
71
330
1F
100
AcDbEntity
  8
MidSection2x
 62
     7
420
 16777215
370
     9
100
AcDbSpline
210
0.0
220
0.0
230
1.0
 70
    11
 71
     3
 72
    17
 73
    13
 74
     0
 42
0.0000000001
 43
0.0000000001
 12
1.0
 22
0.0
 32
0.0
 13
1.0
 23
0.0
 33
0.0
 40
0.0
 40
0.0
 40
0.0
 40
0.0
 40
1.0
 40
1.0
 40
1.0
 40
2.0
 40
2.0
 40
2.0
 40
3.0
 40
3.0
 40
3.0
 40
4.0
 40
4.0
 40
4.0
 40
4.0
 10
265.8707605739135
 20
-305.6751585236958
 30
0.0
 10
265.8707605739135
 20
-307.8670386239162
 30
0.0
 10
264.0938906751268
 20
-309.6439085227036
 30
0.0
 10
261.9020105749057
 20
-309.6439085227036
 30
0.0
 10
259.7101304746853
 20
-309.6439085227036
 30
0.0
 10
257.9332605758979
 20
-307.8670386239162
 30
0.0
 10
257.9332605758979
 20
-305.6751585236958
 30
0.0
 10
257.9332605758979
 20
-303.4832784234747
 30
0.0
 10
259.7101304746853
 20
-301.706408524688
 30
0.0
 10
261.9020105749057
 20
-301.706408524688
 30
0.0
 10
264.0938906751268
 20
-301.706408524688
 30
0.0
 10
265.8707605739135
 20
-303.4832784234747
 30
0.0
 10
265.8707605739135
 20
-305.6751585236958
 30
0.0
  0
SPLINE
  5
72
330
1F
100
AcDbEntity
  8
MidSection2x
 62
     7
420
 16777215
370
     9
100
AcDbSpline
210
0.0
220
0.0
230
1.0
 70
    11
 71
     3
 72
    17
 73
    13
 74
     0
 42
0.0000000001
 43
0.0000000001
 12
1.0
 22
0.0
 32
0.0
 13
1.0
 23
0.0
 33
0.0
 40
0.0
 40
0.0
 40
0.0
 40
0.0
 40
1.0
 40
1.0
 40
1.0
 40
2.0
 40
2.0
 40
2.0
 40
3.0
 40
3.0
 40
3.0
 40
4.0
 40
4.0
 40
4.0
 40
4.0
 10
349.8511670856075
 20
-305.6751585236958
 30
0.0
 10
349.8511670856075
 20
-307.8670386239162
 30
0.0
 10
348.0742971868201
 20
-309.6439085227036
 30
0.0
 10
345.8824170865997
 20
-309.6439085227036
 30
0.0
 10
343.6905369863793
 20
-309.6439085227036
 30
0.0
 10
341.9136670875919
 20
-307.8670386239162
 30
0.0
 10
341.9136670875919
 20
-305.6751585236958
 30
0.0
 10
341.9136670875919
 20
-303.4832784234747
 30
0.0
 10
343.6905369863793
 20
-301.706408524688
 30
0.0
 10
345.8824170865997
 20
-301.706408524688
 30
0.0
 10
348.0742971868201
 20
-301.706408524688
 30
0.0
 10
349.8511670856075
 20
-303.4832784234747
 30
0.0
 10
349.8511670856075
 20
-305.6751585236958
 30
0.0
  0
SPLINE
  5
73
330
1F
100
AcDbEntity
  8
MidSection2x
 62
     7
420
 16777215
370
     9
100
AcDbSpline
210
0.0
220
0.0
230
1.0
 70
    11
 71
     3
 72
    17
 73
    13
 74
     0
 42
0.0000000001
 43
0.0000000001
 12
1.0
 22
0.0
 32
0.0
 13
1.0
 23
0.0
 33
0.0
 40
0.0
 40
0.0
 40
0.0
 40
0.0
 40
1.0
 40
1.0
 40
1.0
 40
2.0
 40
2.0
 40
2.0
 40
3.0
 40
3.0
 40
3.0
 40
4.0
 40
4.0
 40
4.0
 40
4.0
 10
303.8922138307524
 20
-267.6537052668566
 30
0.0
 10
301.7003337305326
 20
-267.6537052668566
 30
0.0
 10
299.9234638317446
 20
-265.8768353680695
 30
0.0
 10
299.9234638317446
 20
-263.6849552678488
 30
0.0
 10
299.9234638317446
 20
-261.4930751676284
 30
0.0
 10
301.7003337305326
 20
-259.716205268841
 30
0.0
 10
303.8922138307524
 20
-259.716205268841
 30
0.0
 10
306.0840939309734
 20
-259.716205268841
 30
0.0
 10
307.8609638297602
 20
-261.4930751676284
 30
0.0
 10
307.8609638297602
 20
-263.6849552678488
 30
0.0
 10
307.8609638297602
 20
-265.8768353680695
 30
0.0
 10
306.0840939309734
 20
-267.6537052668566
 30
0.0
 10
303.8922138307524
 20
-267.6537052668566
 30
0.0
  0
SPLINE
  5
74
330
1F
100
AcDbEntity
  8
MidSection2x
 62
     7
420
 16777215
370
     9
100
AcDbSpline
210
0.0
220
0.0
230
1.0
 70
    11
 71
     3
 72
    17
 73
    13
 74
     0
 42
0.0000000001
 43
0.0000000001
 12
1.0
 22
0.0
 32
0.0
 13
1.0
 23
0.0
 33
0.0
 40
0.0
 40
0.0
 40
0.0
 40
0.0
 40
1.0
 40
1.0
 40
1.0
 40
2.0
 40
2.0
 40
2.0
 40
3.0
 40
3.0
 40
3.0
 40
4.0
 40
4.0
 40
4.0
 40
4.0
 10
303.8922138307524
 20
-351.6341117785503
 30
0.0
 10
301.7003337305326
 20
-351.6341117785503
 30
0.0
 10
299.9234638317446
 20
-349.8572418797635
 30
0.0
 10
299.9234638317446
 20
-347.6653617795424
 30
0.0
 10
299.9234638317446
 20
-345.4734816793227
 30
0.0
 10
301.7003337305326
 20
-343.6966117805346
 30
0.0
 10
303.8922138307524
 20
-343.6966117805346
 30
0.0
 10
306.0840939309734
 20
-343.6966117805346
 30
0.0
 10
307.8609638297602
 20
-345.4734816793227
 30
0.0
 10
307.8609638297602
 20
-347.6653617795424
 30
0.0
 10
307.8609638297602
 20
-349.8572418797635
 30
0.0
 10
306.0840939309734
 20
-351.6341117785503
 30
0.0
 10
303.8922138307524
 20
-351.6341117785503
 30
0.0
  0
SPLINE
  5
75
330
1F
100
AcDbEntity
  8
MidSection2x
 62
     7
420
 16777215
370
     9
100
AcDbSpline
210
0.0
220
0.0
230
1.0
 70
    11
 71
     3
 72
    17
 73
    13
 74
     0
 42
0.0000000001
 43
0.0000000001
 12
1.0
 22
0.0
 32
0.0
 13
1.0
 23
0.0
 33
0.0
 40
0.0
 40
0.0
 40
0.0
 40
0.0
 40
1.0
 40
1.0
 40
1.0
 40
2.0
 40
2.0
 40
2.0
 40
3.0
 40
3.0
 40
3.0
 40
4.0
 40
4.0
 40
4.0
 40
4.0
 10
307.3212155462371
 20
-305.6751601799916
 30
0.0
 10
307.3212155462371
 20
-307.568944586582
 30
0.0
 10
305.785999953685
 20
-309.1041601791341
 30
0.0
 10
303.8922155470945
 20
-309.1041601791341
 30
0.0
 10
301.9984311405041
 20
-309.1041601791341
 30
0.0
 10
300.463215547952
 20
-307.568944586582
 30
0.0
 10
300.463215547952
 20
-305.6751601799916
 30
0.0
 10
300.463215547952
 20
-303.7813757734005
 30
0.0
 10
301.9984311405041
 20
-302.2461601808491
 30
0.0
 10
303.8922155470945
 20
-302.2461601808491
 30
0.0
 10
305.785999953685
 20
-302.2461601808491
 30
0.0
 10
307.3212155462371
 20
-303.7813757734005
 30
0.0
 10
307.3212155462371
 20
-305.6751601799916
 30
0.0
  0
POLYLINE
  5
76
330
1F
100
AcDbEntity
  8
MidSection2x
370
     0
100
AcDb2dPolyline
 66
     1
 10
0.0
 20
0.0
 30
0.0
  0
VERTEX
  5
77
330
76
100
AcDbEntity
  8
MidSection2x
370
     0
100
AcDbVertex
100
AcDb2dVertex
 10
304.4215329365564
 20
-305.6384699130737
 30
0.0
  0
VERTEX
  5
78
330
76
100
AcDbEntity
  8
MidSection2x
370
     0
100
AcDbVertex
100
AcDb2dVertex
 10
304.2323325988758
 20
-305.4174239740013
 30
0.0
  0
VERTEX
  5
79
330
76
100
AcDbEntity
  8
MidSection2x
370
     0
100
AcDbVertex
100
AcDb2dVertex
 10
304.0214066277914
 20
-305.6384699130737
 30
0.0
  0
VERTEX
  5
7A
330
76
100
AcDbEntity
  8
MidSection2x
370
     0
100
AcDbVertex
100
AcDb2dVertex
 10
304.4215329365564
 20
-305.6384699130737
 30
0.0
  0
SEQEND
  5
7B
330
76
100
AcDbEntity
  8
MidSection2x
370
     0
  0
POLYLINE
  5
7C
330
1F
100
AcDbEntity
  8
MidSection2x
370
     0
100
AcDb2dPolyline
 66
     1
 10
0.0
 20
0.0
 30
0.0
  0
VERTEX
  5
7D
330
7C
100
AcDbEntity
  8
MidSection2x
370
     0
100
AcDbVertex
100
AcDb2dVertex
 10
303.8919786967799
 20
-305.7741205478054
 30
0.0
  0
VERTEX
  5
7E
330
7C
100
AcDbEntity
  8
MidSection2x
370
     0
100
AcDbVertex
100
AcDb2dVertex
 10
304.0214066277914
 20
-305.6384699130737
 30
0.0
  0
VERTEX
  5
7F
330
7C
100
AcDbEntity
  8
MidSection2x
370
     0
100
AcDbVertex
100
AcDb2dVertex
 10
303.8919786967799
 20
-305.6384699130737
 30
0.0
  0
VERTEX
  5
80
330
7C
100
AcDbEntity
  8
MidSection2x
370
     0
100
AcDbVertex
100
AcDb2dVertex
 10
303.8919786967799
 20
-305.7741205478054
 30
0.0
  0
SEQEND
  5
81
330
7C
100
AcDbEntity
  8
MidSection2x
370
     0
  0
POLYLINE
  5
82
330
1F
100
AcDbEntity
  8
MidSection2x
370
     0
100
AcDb2dPolyline
 66
     1
 10
0.0
 20
0.0
 30
0.0
  0
VERTEX
  5
83
330
82
100
AcDbEntity
  8
MidSection2x
370
     0
100
AcDbVertex
100
AcDb2dVertex
 10
303.8919786967799
 20
-305.6384699130737
 30
0.0
  0
VERTEX
  5
84
330
82
100
AcDbEntity
  8
MidSection2x
370
     0
100
AcDbVertex
100
AcDb2dVertex
 10
304.0214066277914
 20
-305.6384699130737
 30
0.0
  0
VERTEX
  5
85
330
82
100
AcDbEntity
  8
MidSection2x
370
     0
100
AcDbVertex
100
AcDb2dVertex
 10
304.2323325988758
 20
-305.4174239740013
 30
0.0
  0
VERTEX
  5
86
330
82
100
AcDbEntity
  8
MidSection2x
370
     0
100
AcDbVertex
100
AcDb2dVertex
 10
303.8919786967799
 20
-305.0197738276163
 30
0.0
  0
VERTEX
  5
87
330
82
100
AcDbEntity
  8
MidSection2x
370
     0
100
AcDbVertex
100
AcDb2dVertex
 10
303.8919786967799
 20
-305.6384699130737
 30
0.0
  0
SEQEND
  5
88
330
82
100
AcDbEntity
  8
MidSection2x
370
     0
  0
SPLINE
  5
89
330
1F
100
AcDbEntity
  8
MidSection2x
 62
     7
420
 16777215
370
     9
100
AcDbSpline
210
0.0
220
0.0
230
1.0
 70
    11
 71
     3
 72
    17
 73
    13
 74
     0
 42
0.0000000001
 43
0.0000000001
 12
1.0
 22
0.0
 32
0.0
 13
1.0
 23
0.0
 33
0.0
 40
0.0
 40
0.0
 40
0.0
 40
0.0
 40
1.0
 40
1.0
 40
1.0
 40
2.0
 40
2.0
 40
2.0
 40
3.0
 40
3.0
 40
3.0
 40
4.0
 40
4.0
 40
4.0
 40
4.0
 10
297.7058360523846
 20
-312.257058168255
 30
0.0
 10
297.7058360523846
 20
-312.257058168255
 30
0.0
 10
281.4076276078372
 20
-329.3372386924137
 30
0.0
 10
281.4076276078372
 20
-329.3372386924137
 30
0.0
 10
287.2615769200673
 20
-334.901584665415
 30
0.0
 10
295.1778034534615
 20
-338.3167078199432
 30
0.0
 10
303.8919786967799
 20
-338.3167078199432
 30
0.0
 10
303.8919786967799
 20
-338.3167078199432
 30
0.0
 10
303.8919786967799
 20
-314.7102245359142
 30
0.0
 10
303.8919786967799
 20
-314.7102245359142
 30
0.0
 10
301.4977019300716
 20
-314.7102245359142
 30
0.0
 10
299.3225762999188
 20
-313.7772065511214
 30
0.0
 10
297.7058360523846
 20
-312.257058168255
 30
0.0
  0
SPLINE
  5
8A
330
1F
100
AcDbEntity
  8
MidSection2x
 62
     7
420
 16777215
370
     9
100
AcDbSpline
210
0.0
220
0.0
230
1.0
 70
    11
 71
     3
 72
    23
 73
    19
 74
     0
 42
0.0000000001
 43
0.0000000001
 12
1.0
 22
0.0
 32
0.0
 13
1.0
 23
0.0
 33
0.0
 40
0.0
 40
0.0
 40
0.0
 40
0.0
 40
1.0
 40
1.0
 40
1.0
 40
2.0
 40
2.0
 40
2.0
 40
3.0
 40
3.0
 40
3.0
 40
4.0
 40
4.0
 40
4.0
 40
5.0
 40
5.0
 40
5.0
 40
6.0
 40
6.0
 40
6.0
 40
6.0
 10
336.5335263367315
 20
-305.6751601799916
 30
0.0
 10
336.5335263367315
 20
-305.6628870273254
 30
0.0
 10
336.5330741679491
 20
-305.6507430657398
 30
0.0
 10
336.5330526361023
 20
-305.6384699130737
 30
0.0
 10
336.5330526361023
 20
-305.6384699130737
 30
0.0
 10
312.9261171832909
 20
-305.6384699130737
 30
0.0
 10
312.9261171832909
 20
-305.6384699130737
 30
0.0
 10
312.9261602469845
 20
-305.6507430657398
 30
0.0
 10
312.9270430527026
 20
-305.6628439636318
 30
0.0
 10
312.9270430527026
 20
-305.6751601799916
 30
0.0
 10
312.9270430527026
 20
-308.2685849975941
 30
0.0
 10
311.832708471813
 20
-310.6050487556905
 30
0.0
 10
310.0826214971528
 20
-312.2527948625919
 30
0.0
 10
310.0826214971528
 20
-312.2527948625919
 30
0.0
 10
325.4377135207663
 20
-330.193474111579
 30
0.0
 10
325.4377135207663
 20
-330.193474111579
 30
0.0
 10
332.23966698315
 20
-324.2114533746848
 30
0.0
 10
336.5335263367315
 20
-315.4453217850794
 30
0.0
 10
336.5335263367315
 20
-305.6751601799916
 30
0.0
  0
SPLINE
  5
8B
330
1F
100
AcDbEntity
  8
MidSection2x
 62
     7
420
 16777215
370
     9
100
AcDbSpline
210
0.0
220
0.0
230
1.0
 70
    11
 71
     3
 72
    17
 73
    13
 74
     0
 42
0.0000000001
 43
0.0000000001
 12
1.0
 22
0.0
 32
0.0
 13
1.0
 23
0.0
 33
0.0
 40
0.0
 40
0.0
 40
0.0
 40
0.0
 40
1.0
 40
1.0
 40
1.0
 40
2.0
 40
2.0
 40
2.0
 40
3.0
 40
3.0
 40
3.0
 40
4.0
 40
4.0
 40
4.0
 40
4.0
 10
298.3486908699322
 20
-298.5430804427338
 30
0.0
 10
298.3486908699322
 20
-298.5430804427338
 30
0.0
 10
282.9932974004638
 20
-280.6020566841982
 30
0.0
 10
282.9932974004638
 20
-280.6020566841982
 30
0.0
 10
275.8262068803372
 20
-286.5823548733499
 30
0.0
 10
271.2619936585507
 20
-295.5767671025466
 30
0.0
 10
271.2509047574575
 20
-305.6384699130737
 30
0.0
 10
271.2509047574575
 20
-305.6384699130737
 30
0.0
 10
294.8578402102689
 20
-305.6384699130737
 30
0.0
 10
294.8578402102689
 20
-305.6384699130737
 30
0.0
 10
294.8693812801445
 20
-302.7535038900319
 30
0.0
 10
296.2337682833842
 20
-300.1892331929733
 30
0.0
 10
298.3486908699322
 20
-298.5430804427338
 30
0.0
  0
SPLINE
  5
8C
330
1F
100
AcDbEntity
  8
MidSection2x
 62
     7
420
 16777215
370
     9
100
AcDbSpline
210
0.0
220
0.0
230
1.0
 70
    11
 71
     3
 72
    17
 73
    13
 74
     0
 42
0.0000000001
 43
0.0000000001
 12
1.0
 22
0.0
 32
0.0
 13
1.0
 23
0.0
 33
0.0
 40
0.0
 40
0.0
 40
0.0
 40
0.0
 40
1.0
 40
1.0
 40
1.0
 40
2.0
 40
2.0
 40
2.0
 40
3.0
 40
3.0
 40
3.0
 40
4.0
 40
4.0
 40
4.0
 40
4.0
 10
310.1770171134487
 20
-299.1875286169433
 30
0.0
 10
310.1770171134487
 20
-299.1875286169433
 30
0.0
 10
326.4749025802943
 20
-282.1077356660267
 30
0.0
 10
326.4749025802943
 20
-282.1077356660267
 30
0.0
 10
320.6113715962459
 20
-276.4876652735515
 30
0.0
 10
312.6552896144567
 20
-273.03361254004
 30
0.0
 10
303.8919786967799
 20
-273.03361254004
 30
0.0
 10
303.8919786967799
 20
-273.03361254004
 30
0.0
 10
303.8919786967799
 20
-296.6400958240689
 30
0.0
 10
303.8919786967799
 20
-296.6400958240689
 30
0.0
 10
306.3353911378466
 20
-296.6400958240689
 30
0.0
 10
308.5506951940961
 20
-297.6116988782965
 30
0.0
 10
310.1770171134487
 20
-299.1875286169433
 30
0.0
  0
SPLINE
  5
8E
330
1F
100
AcDbEntity
  8
testCut
 62
     7
420
 16777215
370
     9
100
AcDbSpline
210
0.0
220
0.0
230
1.0
 70
    11
 71
     3
 72
    17
 73
    13
 74
     0
 42
0.0000000001
 43
0.0000000001
 12
1.0
 22
0.0
 32
0.0
 13
1.0
 23
0.0
 33
0.0
 40
0.0
 40
0.0
 40
0.0
 40
0.0
 40
1.0
 40
1.0
 40
1.0
 40
2.0
 40
2.0
 40
2.0
 40
3.0
 40
3.0
 40
3.0
 40
4.0
 40
4.0
 40
4.0
 40
4.0
 10
132.7004944234047
 20
-241.3470361900376
 30
0.0
 10
130.508614323185
 20
-241.3470361900376
 30
0.0
 10
128.7317444243969
 20
-239.5701662912501
 30
0.0
 10
128.7317444243969
 20
-237.3782861910297
 30
0.0
 10
128.7317444243969
 20
-235.1864060908087
 30
0.0
 10
130.508614323185
 20
-233.4095361920219
 30
0.0
 10
132.7004944234047
 20
-233.4095361920219
 30
0.0
 10
134.8923745236258
 20
-233.4095361920219
 30
0.0
 10
136.6692444224125
 20
-235.1864060908087
 30
0.0
 10
136.6692444224125
 20
-237.3782861910297
 30
0.0
 10
136.6692444224125
 20
-239.5701662912501
 30
0.0
 10
134.8923745236258
 20
-241.3470361900376
 30
0.0
 10
132.7004944234047
 20
-241.3470361900376
 30
0.0
  0
SPLINE
  5
8F
330
1F
100
AcDbEntity
  8
testCut
 62
     7
420
 16777215
370
     9
100
AcDbSpline
210
0.0
220
0.0
230
1.0
 70
    11
 71
     3
 72
    17
 73
    13
 74
     0
 42
0.0000000001
 43
0.0000000001
 12
1.0
 22
0.0
 32
0.0
 13
1.0
 23
0.0
 33
0.0
 40
0.0
 40
0.0
 40
0.0
 40
0.0
 40
1.0
 40
1.0
 40
1.0
 40
2.0
 40
2.0
 40
2.0
 40
3.0
 40
3.0
 40
3.0
 40
4.0
 40
4.0
 40
4.0
 40
4.0
 10
155.6130062010002
 20
-240.9501611901368
 30
0.0
 10
153.6403141108024
 20
-240.9501611901368
 30
0.0
 10
152.0411312018932
 20
-239.3509782812279
 30
0.0
 10
152.0411312018932
 20
-237.3782861910297
 30
0.0
 10
152.0411312018932
 20
-235.4055941008309
 30
0.0
 10
153.6403141108024
 20
-233.8064111919227
 30
0.0
 10
155.6130062010002
 20
-233.8064111919227
 30
0.0
 10
157.5856982911993
 20
-233.8064111919227
 30
0.0
 10
159.1848812001072
 20
-235.4055941008309
 30
0.0
 10
159.1848812001072
 20
-237.3782861910297
 30
0.0
 10
159.1848812001072
 20
-239.3509782812279
 30
0.0
 10
157.5856982911993
 20
-240.9501611901368
 30
0.0
 10
155.6130062010002
 20
-240.9501611901368
 30
0.0
  0
SPLINE
  5
90
330
1F
100
AcDbEntity
  8
testCut
 62
     7
420
 16777215
370
     9
100
AcDbSpline
210
0.0
220
0.0
230
1.0
 70
    11
 71
     3
 72
    17
 73
    13
 74
     0
 42
0.0000000001
 43
0.0000000001
 12
1.0
 22
0.0
 32
0.0
 13
1.0
 23
0.0
 33
0.0
 40
0.0
 40
0.0
 40
0.0
 40
0.0
 40
1.0
 40
1.0
 40
1.0
 40
2.0
 40
2.0
 40
2.0
 40
3.0
 40
3.0
 40
3.0
 40
4.0
 40
4.0
 40
4.0
 40
4.0
 10
144.1567503122025
 20
-241.1485986900871
 30
0.0
 10
142.0744642169935
 20
-241.1485986900871
 30
0.0
 10
140.3864378131451
 20
-239.460572286239
 30
0.0
 10
140.3864378131451
 20
-237.3782861910297
 30
0.0
 10
140.3864378131451
 20
-235.2960000958192
 30
0.0
 10
142.0744642169935
 20
-233.6079736919723
 30
0.0
 10
144.1567503122025
 20
-233.6079736919723
 30
0.0
 10
146.2390364074124
 20
-233.6079736919723
 30
0.0
 10
147.9270628112599
 20
-235.2960000958192
 30
0.0
 10
147.9270628112599
 20
-237.3782861910297
 30
0.0
 10
147.9270628112599
 20
-239.460572286239
 30
0.0
 10
146.2390364074124
 20
-241.1485986900871
 30
0.0
 10
144.1567503122025
 20
-241.1485986900871
 30
0.0
  0
MTEXT
  5
91
330
1F
100
AcDbEntity
  8
testCut
 62
     7
420
 16777215
100
AcDbMText
 10
128.5333081785045
 20
-244.8141877568998
 30
0.0
 40
1.508578151468787
 41
0.0
 46
0.0
 71
     7
 72
     1
  1
\fMyriad Pro|b0|i0|c0|p34;\W1;7.9mm
 73
     1
 44
1.0
  0
MTEXT
  5
92
330
1F
100
AcDbEntity
  8
testCut
 62
     7
420
 16777215
100
AcDbMText
 10
128.5333081785045
 20
-247.3711376260523
 30
0.0
 40
1.508578151468787
 41
0.0
 46
0.0
 71
     7
 72
     1
  1
\fMyriad Pro|b0|i0|c0|p34;\W1;100%
 73
     1
 44
1.0
  0
MTEXT
  5
93
330
1F
100
AcDbEntity
  8
testCut
 62
     7
420
 16777215
100
AcDbMText
 10
128.5333081785045
 20
-249.9280874952047
 30
0.0
 40
1.508578151468787
 41
0.0
 46
0.0
 71
     7
 72
     1
  1
\fMyriad Pro|b0|i0|c0|p34;\W1;5/16
 73
     1
 44
1.0
  0
MTEXT
  5
94
330
1F
100
AcDbEntity
  8
testCut
 62
     7
420
 16777215
100
AcDbMText
 10
140.1880017777819
 20
-244.81418842977
 30
0.0
 40
1.428625382733816
 41
0.0
 46
0.0
 71
     7
 72
     1
  1
\fMyriad Pro|b0|i0|c0|p34;\W1;7.54mm
 73
     1
 44
1.0
  0
MTEXT
  5
95
330
1F
100
AcDbEntity
  8
testCut
 62
     7
420
 16777215
100
AcDbMText
 10
140.1880017777819
 20
-247.2355737915779
 30
0.0
 40
1.428625382733816
 41
0.0
 46
0.0
 71
     7
 72
     1
  1
\fMyriad Pro|b0|i0|c0|p34;\W1;95%
 73
     1
 44
1.0
  0
MTEXT
  5
96
330
1F
100
AcDbEntity
  8
testCut
 62
     7
420
 16777215
100
AcDbMText
 10
154.208181036703
 20
-244.8141876307367
 30
0.0
 40
1.501579713175808
 41
0.0
 46
0.0
 71
     7
 72
     1
  1
\fMyriad Pro|b0|i0|c0|p34;\W1;7.14mm
 73
     1
 44
1.0
  0
MTEXT
  5
97
330
1F
100
AcDbEntity
  8
testCut
 62
     7
420
 16777215
100
AcDbMText
 10
154.208181036703
 20
-247.359251920465
 30
0.0
 40
1.501579713175808
 41
0.0
 46
0.0
 71
     7
 72
     1
  1
\fMyriad Pro|b0|i0|c0|p34;\W1;90%
 73
     1
 44
1.0
  0
MTEXT
  5
98
330
1F
100
AcDbEntity
  8
testCut
 62
     7
420
 16777215
100
AcDbMText
 10
128.7316684665981
 20
-253.9925509268185
 30
0.0
 40
0.9971284651170814
 41
0.0
 46
0.0
 71
     7
 72
     1
  1
\fMyriad Pro|b0|i0|c0|p34;\W1;5/16 dowl rod
 73
     1
 44
1.0
  0
ENDSEC
  0
SECTION
  2
OBJECTS
  0
DICTIONARY
  5
C
330
0
100
AcDbDictionary
281
     1
  3
ACAD_GROUP
350
D
  3
ACAD_LAYOUT
350
1A
  3
ACAD_MATERIAL
350
3B
  3
ACAD_MLEADERSTYLE
350
9A
  3
ACAD_MLINESTYLE
350
17
  3
ACAD_PLOTSETTINGS
350
19
  3
ACAD_PLOTSTYLENAME
350
E
  3
ACAD_TABLESTYLE
350
99
  3
ACAD_VISUALSTYLE
350
2A
  0
SUN
  5
3F
330
29
100
AcDbSun
 90
        1
290
     0
 63
     7
421
 16777215
 40
1.0
291
     1
 91
  2455826
 92
 54000000
292
     0
 70
     2
 71
   256
280
     1
  0
DICTIONARY
  5
D
102
{ACAD_REACTORS
330
C
102
}
330
C
100
AcDbDictionary
281
     1
  0
DICTIONARY
  5
1A
102
{ACAD_REACTORS
330
C
102
}
330
C
100
AcDbDictionary
281
     1
  3
Layout1
350
1E
  3
Layout2
350
26
  3
Model
350
22
  0
DICTIONARY
  5
3B
102
{ACAD_REACTORS
330
C
102
}
330
C
100
AcDbDictionary
281
     1
  3
ByBlock
350
3D
  3
ByLayer
350
3C
  3
Global
350
3E
  0
DICTIONARY
  5
9A
102
{ACAD_REACTORS
330
C
102
}
330
C
100
AcDbDictionary
281
     1
  0
DICTIONARY
  5
17
102
{ACAD_REACTORS
330
C
102
}
330
C
100
AcDbDictionary
281
     1
  3
Standard
350
18
  0
DICTIONARY
  5
19
102
{ACAD_REACTORS
330
C
102
}
330
C
100
AcDbDictionary
281
     1
  0
ACDBDICTIONARYWDFLT
  5
E
102
{ACAD_REACTORS
330
C
102
}
330
C
100
AcDbDictionary
281
     1
  3
Normal
350
F
100
AcDbDictionaryWithDefault
340
F
  0
DICTIONARY
  5
99
102
{ACAD_REACTORS
330
C
102
}
330
C
100
AcDbDictionary
281
     1
  0
DICTIONARY
  5
2A
102
{ACAD_REACTORS
330
C
102
}
330
C
100
AcDbDictionary
281
     1
  3
2dWireframe
350
2F
  3
3D Hidden
350
31
  3
3dWireframe
350
30
  3
Basic
350
32
  3
Brighten
350
36
  3
ColorChange
350
3A
  3
Conceptual
350
34
  3
Dim
350
35
  3
Facepattern
350
39
  3
Flat
350
2B
  3
FlatWithEdges
350
2C
  3
Gouraud
350
2D
  3
GouraudWithEdges
350
2E
  3
Linepattern
350
38
  3
Realistic
350
33
  3
Thicken
350
37
  0
LAYOUT
  5
1E
102
{ACAD_REACTORS
330
1A
102
}
330
1A
100
AcDbPlotSettings
  1

  2
none_device
  4

  6

 40
0.0
 41
0.0
 42
0.0
 43
0.0
 44
0.0
 45
0.0
 46
0.0
 47
0.0
 48
0.0
 49
0.0
140
0.0
141
0.0
142
1.0
143
1.0
 70
   688
 72
     0
 73
     0
 74
     5
  7

 75
    16
 76
     0
 77
     2
 78
   300
147
1.0
148
0.0
149
0.0
100
AcDbLayout
  1
Layout1
 70
     1
 71
     1
 10
0.0
 20
0.0
 11
12.0
 21
9.0
 12
0.0
 22
0.0
 32
0.0
 14
1.000000000000000E+20
 24
1.000000000000000E+20
 34
1.000000000000000E+20
 15
-1.000000000000000E+20
 25
-1.000000000000000E+20
 35
-1.000000000000000E+20
146
0.0
 13
0.0
 23
0.0
 33
0.0
 16
1.0
 26
0.0
 36
0.0
 17
0.0
 27
1.0
 37
0.0
 76
     0
330
1B
  0
LAYOUT
  5
26
102
{ACAD_REACTORS
330
1A
102
}
330
1A
100
AcDbPlotSettings
  1

  2
none_device
  4

  6

 40
0.0
 41
0.0
 42
0.0
 43
0.0
 44
0.0
 45
0.0
 46
0.0
 47
0.0
 48
0.0
 49
0.0
140
0.0
141
0.0
142
1.0
143
1.0
 70
   688
 72
     0
 73
     0
 74
     5
  7

 75
    16
 76
     0
 77
     2
 78
   300
147
1.0
148
0.0
149
0.0
100
AcDbLayout
  1
Layout2
 70
     1
 71
     2
 10
0.0
 20
0.0
 11
0.0
 21
0.0
 12
0.0
 22
0.0
 32
0.0
 14
0.0
 24
0.0
 34
0.0
 15
0.0
 25
0.0
 35
0.0
146
0.0
 13
0.0
 23
0.0
 33
0.0
 16
1.0
 26
0.0
 36
0.0
 17
0.0
 27
1.0
 37
0.0
 76
     0
330
23
  0
LAYOUT
  5
22
102
{ACAD_REACTORS
330
1A
102
}
330
1A
100
AcDbPlotSettings
  1

  2
none_device
  4

  6

 40
0.0
 41
0.0
 42
0.0
 43
0.0
 44
0.0
 45
0.0
 46
0.0
 47
0.0
 48
0.0
 49
0.0
140
0.0
141
0.0
142
1.0
143
1.0
 70
  1712
 72
     0
 73
     0
 74
     0
  7

 75
     0
 76
     0
 77
     2
 78
   300
147
1.0
148
0.0
149
0.0
100
AcDbLayout
  1
Model
 70
     1
 71
     0
 10
0.0
 20
0.0
 11
12.0
 21
9.0
 12
0.0
 22
0.0
 32
0.0
 14
1.000000000000000E+20
 24
1.000000000000000E+20
 34
1.000000000000000E+20
 15
-1.000000000000000E+20
 25
-1.000000000000000E+20
 35
-1.000000000000000E+20
146
0.0
 13
0.0
 23
0.0
 33
0.0
 16
1.0
 26
0.0
 36
0.0
 17
0.0
 27
1.0
 37
0.0
 76
     0
330
1F
331
29
  0
MATERIAL
  5
3D
102
{ACAD_REACTORS
330
3B
102
}
330
3B
100
AcDbMaterial
  1
ByBlock
 72
     1
 94
      127
  0
MATERIAL
  5
3C
102
{ACAD_REACTORS
330
3B
102
}
330
3B
100
AcDbMaterial
  1
ByLayer
 72
     1
 94
      127
  0
MATERIAL
  5
3E
102
{ACAD_REACTORS
330
3B
102
}
330
3B
100
AcDbMaterial
  1
Global
 72
     1
 94
      127
  0
MLINESTYLE
  5
18
102
{ACAD_REACTORS
330
17
102
}
330
17
100
AcDbMlineStyle
  2
Standard
 70
     0
  3

 62
   256
 51
90.0
 52
90.0
 71
     2
 49
0.5
 62
   256
  6
BYLAYER
 49
-0.5
 62
   256
  6
BYLAYER
  0
ACDBPLACEHOLDER
  5
F
102
{ACAD_REACTORS
330
E
102
}
330
E
  0
VISUALSTYLE
  5
2F
102
{ACAD_REACTORS
330
2A
102
}
330
2A
100
AcDbVisualStyle
  2
2dWireframe
 70
     4
177
     2
291
     0
 71
     0
176
     1
 72
     2
176
     1
 73
     0
176
     1
 90
        0
176
     1
 40
-0.6
176
     1
 41
-30.0
176
     1
 62
     5
 63
     7
421
 16777215
176
     1
 74
     1
176
     1
 91
        4
176
     1
 64
     7
176
     1
 65
   257
176
     1
 75
     1
176
     1
175
     1
176
     1
 42
1.0
176
     1
 92
        0
176
     1
 66
   257
176
     1
 43
1.0
176
     1
 76
     1
176
     1
 77
     6
176
     1
 78
     2
176
     1
 67
     7
176
     1
 79
     5
176
     1
170
     0
176
     1
171
     0
176
     1
290
     0
176
     1
 93
        1
176
     1
 44
0.0
176
     1
173
     0
176
     1
  0
VISUALSTYLE
  5
31
102
{ACAD_REACTORS
330
2A
102
}
330
2A
100
AcDbVisualStyle
  2
3D Hidden
 70
     6
177
     2
291
     0
 71
     1
176
     1
 72
     2
176
     1
 73
     2
176
     1
 90
        0
176
     1
 40
-0.6
176
     1
 41
-30.0
176
     1
 62
     5
 63
     7
421
 16777215
176
     1
 74
     2
176
     1
 91
        2
176
     1
 64
     7
176
     1
 65
   257
176
     1
 75
     2
176
     1
175
     1
176
     1
 42
40.0
176
     1
 92
        0
176
     1
 66
   257
176
     1
 43
1.0
176
     1
 76
     1
176
     1
 77
     6
176
     1
 78
     2
176
     1
 67
     7
176
     1
 79
     3
176
     1
170
     0
176
     1
171
     0
176
     1
290
     0
176
     1
 93
        1
176
     1
 44
0.0
176
     1
173
     0
176
     1
  0
VISUALSTYLE
  5
30
102
{ACAD_REACTORS
330
2A
102
}
330
2A
100
AcDbVisualStyle
  2
3dWireframe
 70
     5
177
     2
291
     0
 71
     0
176
     1
 72
     2
176
     1
 73
     0
176
     1
 90
        0
176
     1
 40
-0.6
176
     1
 41
-30.0
176
     1
 62
     5
 63
     7
421
 16777215
176
     1
 74
     1
176
     1
 91
        4
176
     1
 64
     7
176
     1
 65
   257
176
     1
 75
     1
176
     1
175
     1
176
     1
 42
1.0
176
     1
 92
        0
176
     1
 66
   257
176
     1
 43
1.0
176
     1
 76
     1
176
     1
 77
     6
176
     1
 78
     2
176
     1
 67
     7
176
     1
 79
     5
176
     1
170
     0
176
     1
171
     0
176
     1
290
     0
176
     1
 93
        1
176
     1
 44
0.0
176
     1
173
     0
176
     1
  0
VISUALSTYLE
  5
32
102
{ACAD_REACTORS
330
2A
102
}
330
2A
100
AcDbVisualStyle
  2
Basic
 70
     7
177
     2
291
     1
 71
     1
176
     1
 72
     0
176
     1
 73
     1
176
     1
 90
        0
176
     1
 40
-0.6
176
     1
 41
-30.0
176
     1
 62
     5
 63
     7
421
 16777215
176
     1
 74
     0
176
     1
 91
        4
176
     1
 64
     7
176
     1
 65
   257
176
     1
 75
     1
176
     1
175
     1
176
     1
 42
1.0
176
     1
 92
        8
176
     1
 66
     7
176
     1
 43
1.0
176
     1
 76
     1
176
     1
 77
     6
176
     1
 78
     2
176
     1
 67
     7
176
     1
 79
     5
176
     1
170
     0
176
     1
171
     0
176
     1
290
     0
176
     1
 93
        1
176
     1
 44
0.0
176
     1
173
     0
176
     1
  0
VISUALSTYLE
  5
36
102
{ACAD_REACTORS
330
2A
102
}
330
2A
100
AcDbVisualStyle
  2
Brighten
 70
    12
177
     2
291
     1
 71
     2
176
     1
 72
     2
176
     1
 73
     0
176
     1
 90
        0
176
     1
 40
-0.6
176
     1
 41
-30.0
176
     1
 62
     5
 63
     7
421
 16777215
176
     1
 74
     1
176
     1
 91
        4
176
     1
 64
     7
176
     1
 65
   257
176
     1
 75
     1
176
     1
175
     1
176
     1
 42
1.0
176
     1
 92
        8
176
     1
 66
     7
176
     1
 43
1.0
176
     1
 76
     1
176
     1
 77
     6
176
     1
 78
     2
176
     1
 67
     7
176
     1
 79
     5
176
     1
170
     0
176
     1
171
     0
176
     1
290
     0
176
     1
 93
        1
176
     1
 44
50.0
176
     1
173
     0
176
     1
  0
VISUALSTYLE
  5
3A
102
{ACAD_REACTORS
330
2A
102
}
330
2A
100
AcDbVisualStyle
  2
ColorChange
 70
    16
177
     2
291
     1
 71
     2
176
     1
 72
     2
176
     1
 73
     3
176
     1
 90
        0
176
     1
 40
-0.6
176
     1
 41
-30.0
176
     1
 62
     5
 63
     8
421
  8421504
176
     1
 74
     1
176
     1
 91
        4
176
     1
 64
     7
176
     1
 65
   257
176
     1
 75
     1
176
     1
175
     1
176
     1
 42
1.0
176
     1
 92
        8
176
     1
 66
     8
424
  8421504
176
     1
 43
1.0
176
     1
 76
     1
176
     1
 77
     6
176
     1
 78
     2
176
     1
 67
     7
176
     1
 79
     5
176
     1
170
     0
176
     1
171
     0
176
     1
290
     0
176
     1
 93
        1
176
     1
 44
0.0
176
     1
173
     0
176
     1
  0
VISUALSTYLE
  5
34
102
{ACAD_REACTORS
330
2A
102
}
330
2A
100
AcDbVisualStyle
  2
Conceptual
 70
     9
177
     2
291
     0
 71
     3
176
     1
 72
     2
176
     1
 73
     0
176
     1
 90
        0
176
     1
 40
-0.6
176
     1
 41
-30.0
176
     1
 62
     5
 63
     7
421
 16777215
176
     1
 74
     2
176
     1
 91
        2
176
     1
 64
     7
176
     1
 65
   257
176
     1
 75
     1
176
     1
175
     1
176
     1
 42
40.0
176
     1
 92
        8
176
     1
 66
     7
176
     1
 43
1.0
176
     1
 76
     1
176
     1
 77
     6
176
     1
 78
     2
176
     1
 67
     7
176
     1
 79
     3
176
     1
170
     0
176
     1
171
     0
176
     1
290
     0
176
     1
 93
        1
176
     1
 44
0.0
176
     1
173
     0
176
     1
  0
VISUALSTYLE
  5
35
102
{ACAD_REACTORS
330
2A
102
}
330
2A
100
AcDbVisualStyle
  2
Dim
 70
    11
177
     2
291
     1
 71
     2
176
     1
 72
     2
176
     1
 73
     0
176
     1
 90
        0
176
     1
 40
-0.6
176
     1
 41
-30.0
176
     1
 62
     5
 63
     7
421
 16777215
176
     1
 74
     1
176
     1
 91
        4
176
     1
 64
     7
176
     1
 65
   257
176
     1
 75
     1
176
     1
175
     1
176
     1
 42
1.0
176
     1
 92
        8
176
     1
 66
     7
176
     1
 43
1.0
176
     1
 76
     1
176
     1
 77
     6
176
     1
 78
     2
176
     1
 67
     7
176
     1
 79
     5
176
     1
170
     0
176
     1
171
     0
176
     1
290
     0
176
     1
 93
        1
176
     1
 44
-50.0
176
     1
173
     0
176
     1
  0
VISUALSTYLE
  5
39
102
{ACAD_REACTORS
330
2A
102
}
330
2A
100
AcDbVisualStyle
  2
Facepattern
 70
    15
177
     2
291
     1
 71
     2
176
     1
 72
     2
176
     1
 73
     0
176
     1
 90
        0
176
     1
 40
-0.6
176
     1
 41
-30.0
176
     1
 62
     5
 63
     7
421
 16777215
176
     1
 74
     1
176
     1
 91
        4
176
     1
 64
     7
176
     1
 65
   257
176
     1
 75
     1
176
     1
175
     1
176
     1
 42
1.0
176
     1
 92
        8
176
     1
 66
     7
176
     1
 43
1.0
176
     1
 76
     1
176
     1
 77
     6
176
     1
 78
     2
176
     1
 67
     7
176
     1
 79
     5
176
     1
170
     0
176
     1
171
     0
176
     1
290
     0
176
     1
 93
        1
176
     1
 44
0.0
176
     1
173
     0
176
     1
  0
VISUALSTYLE
  5
2B
102
{ACAD_REACTORS
330
2A
102
}
330
2A
100
AcDbVisualStyle
  2
Flat
 70
     0
177
     2
291
     1
 71
     2
176
     1
 72
     1
176
     1
 73
     1
176
     1
 90
        2
176
     1
 40
-0.6
176
     1
 41
30.0
176
     1
 62
     5
 63
     7
421
 16777215
176
     1
 74
     0
176
     1
 91
        4
176
     1
 64
     7
176
     1
 65
   257
176
     1
 75
     1
176
     1
175
     1
176
     1
 42
1.0
176
     1
 92
        8
176
     1
 66
     7
176
     1
 43
1.0
176
     1
 76
     1
176
     1
 77
     6
176
     1
 78
     2
176
     1
 67
     7
176
     1
 79
     5
176
     1
170
     0
176
     1
171
     0
176
     1
290
     0
176
     1
 93
       13
176
     1
 44
0.0
176
     1
173
     0
176
     1
  0
VISUALSTYLE
  5
2C
102
{ACAD_REACTORS
330
2A
102
}
330
2A
100
AcDbVisualStyle
  2
FlatWithEdges
 70
     1
177
     2
291
     1
 71
     2
176
     1
 72
     1
176
     1
 73
     1
176
     1
 90
        2
176
     1
 40
-0.6
176
     1
 41
30.0
176
     1
 62
     5
 63
     7
421
 16777215
176
     1
 74
     1
176
     1
 91
        4
176
     1
 64
     7
176
     1
 65
   257
176
     1
 75
     1
176
     1
175
     1
176
     1
 42
1.0
176
     1
 92
        0
176
     1
 66
   257
176
     1
 43
1.0
176
     1
 76
     1
176
     1
 77
     6
176
     1
 78
     2
176
     1
 67
     7
176
     1
 79
     5
176
     1
170
     0
176
     1
171
     0
176
     1
290
     0
176
     1
 93
       13
176
     1
 44
0.0
176
     1
173
     0
176
     1
  0
VISUALSTYLE
  5
2D
102
{ACAD_REACTORS
330
2A
102
}
330
2A
100
AcDbVisualStyle
  2
Gouraud
 70
     2
177
     2
291
     1
 71
     2
176
     1
 72
     2
176
     1
 73
     1
176
     1
 90
        2
176
     1
 40
-0.6
176
     1
 41
30.0
176
     1
 62
     5
 63
     7
421
 16777215
176
     1
 74
     0
176
     1
 91
        4
176
     1
 64
     7
176
     1
 65
   257
176
     1
 75
     1
176
     1
175
     1
176
     1
 42
1.0
176
     1
 92
        0
176
     1
 66
     7
176
     1
 43
1.0
176
     1
 76
     1
176
     1
 77
     6
176
     1
 78
     2
176
     1
 67
     7
176
     1
 79
     5
176
     1
170
     0
176
     1
171
     0
176
     1
290
     0
176
     1
 93
       13
176
     1
 44
0.0
176
     1
173
     0
176
     1
  0
VISUALSTYLE
  5
2E
102
{ACAD_REACTORS
330
2A
102
}
330
2A
100
AcDbVisualStyle
  2
GouraudWithEdges
 70
     3
177
     2
291
     1
 71
     2
176
     1
 72
     2
176
     1
 73
     1
176
     1
 90
        2
176
     1
 40
-0.6
176
     1
 41
30.0
176
     1
 62
     5
 63
     7
421
 16777215
176
     1
 74
     1
176
     1
 91
        4
176
     1
 64
     7
176
     1
 65
   257
176
     1
 75
     1
176
     1
175
     1
176
     1
 42
1.0
176
     1
 92
        0
176
     1
 66
   257
176
     1
 43
1.0
176
     1
 76
     1
176
     1
 77
     6
176
     1
 78
     2
176
     1
 67
     7
176
     1
 79
     5
176
     1
170
     0
176
     1
171
     0
176
     1
290
     0
176
     1
 93
       13
176
     1
 44
0.0
176
     1
173
     0
176
     1
  0
VISUALSTYLE
  5
38
102
{ACAD_REACTORS
330
2A
102
}
330
2A
100
AcDbVisualStyle
  2
Linepattern
 70
    14
177
     2
291
     1
 71
     2
176
     1
 72
     2
176
     1
 73
     0
176
     1
 90
        0
176
     1
 40
-0.6
176
     1
 41
-30.0
176
     1
 62
     5
 63
     7
421
 16777215
176
     1
 74
     1
176
     1
 91
        4
176
     1
 64
     7
176
     1
 65
   257
176
     1
 75
     7
176
     1
175
     7
176
     1
 42
1.0
176
     1
 92
        8
176
     1
 66
     7
176
     1
 43
1.0
176
     1
 76
     1
176
     1
 77
     6
176
     1
 78
     2
176
     1
 67
     7
176
     1
 79
     5
176
     1
170
     0
176
     1
171
     0
176
     1
290
     0
176
     1
 93
        1
176
     1
 44
0.0
176
     1
173
     0
176
     1
  0
VISUALSTYLE
  5
33
102
{ACAD_REACTORS
330
2A
102
}
330
2A
100
AcDbVisualStyle
  2
Realistic
 70
     8
177
     2
291
     0
 71
     2
176
     1
 72
     2
176
     1
 73
     0
176
     1
 90
        0
176
     1
 40
-0.6
176
     1
 41
-30.0
176
     1
 62
     5
 63
     7
421
 16777215
176
     1
 74
     1
176
     1
 91
        0
176
     1
 64
     7
176
     1
 65
   257
176
     1
 75
     1
176
     1
175
     1
176
     1
 42
1.0
176
     1
 92
        8
176
     1
 66
     8
424
  7895160
176
     1
 43
1.0
176
     1
 76
     1
176
     1
 77
     6
176
     1
 78
     2
176
     1
 67
     7
176
     1
 79
     5
176
     1
170
     0
176
     1
171
     0
176
     1
290
     0
176
     1
 93
       13
176
     1
 44
0.0
176
     1
173
     0
176
     1
  0
VISUALSTYLE
  5
37
102
{ACAD_REACTORS
330
2A
102
}
330
2A
100
AcDbVisualStyle
  2
Thicken
 70
    13
177
     2
291
     1
 71
     2
176
     1
 72
     2
176
     1
 73
     0
176
     1
 90
        0
176
     1
 40
-0.6
176
     1
 41
-30.0
176
     1
 62
     5
 63
     7
421
 16777215
176
     1
 74
     1
176
     1
 91
        4
176
     1
 64
     7
176
     1
 65
   257
176
     1
 75
     1
176
     1
175
     1
176
     1
 42
1.0
176
     1
 92
       12
176
     1
 66
     7
176
     1
 43
1.0
176
     1
 76
     1
176
     1
 77
     6
176
     1
 78
     2
176
     1
 67
     7
176
     1
 79
     5
176
     1
170
     0
176
     1
171
     0
176
     1
290
     0
176
     1
 93
        1
176
     1
 44
0.0
176
     1
173
     0
176
     1
  0
ENDSEC
  0
EOF
